<?xml version="1.0" encoding="UTF-8"?>
<svg xmlns="http://www.w3.org/2000/svg" id="a" width="865.76" height="682.89" viewBox="0 0 865.76 682.89">
  <g>
    <path d="M36.16,261.84c-3.68,1.84-5.18,6.32-3.34,10l63.5,127.34c2.33,4.57,7.9,6.41,12.49,4.12l87.79-43.85c4.62-2.29,6.52-7.89,4.23-12.51-.02-.03-.03-.06-.05-.1l-63.1-126.12c-2.14-4.27-7.32-6-11.6-3.88l-89.92,45Z" fill="#322c6d"></path>
    <path d="M104.67,404.77c-3.59,0-7.07-1.97-8.8-5.37l-63.5-127.34c-1.96-3.92-.36-8.71,3.56-10.67l89.92-45c4.51-2.24,10.01-.39,12.27,4.1l63.15,126.22c2.4,4.86,.41,10.77-4.46,13.18l-87.79,43.85c-1.4,.7-2.89,1.03-4.36,1.03Zm25.24-188.33c-1.22,0-2.45,.27-3.61,.85l-89.92,45c-3.43,1.71-4.83,5.9-3.12,9.33l63.5,127.34c2.19,4.3,7.49,6.05,11.82,3.9l87.79-43.85c4.37-2.16,6.17-7.48,4-11.84l-.05-.09-63.1-126.12c-1.43-2.85-4.32-4.5-7.32-4.5Z" fill="#002346"></path>
  </g>
  <g>
    <path d="M39.39,273.77l59.79,121.29c1.81,3.69,6.28,5.22,9.97,3.4,0,0,.02,0,.03-.01l80.6-39.9c3.66-1.81,5.18-6.22,3.42-9.9l-58.92-122.95c-1.81-3.76-6.32-5.35-10.09-3.54-.05,.03-.11,.05-.16,.08l-81.3,41.46c-3.68,1.88-5.17,6.36-3.34,10.07Z" fill="#fff"></path>
    <path d="M105.86,399.73c-.86,0-1.73-.14-2.57-.43-2.01-.69-3.63-2.11-4.57-4.02l-59.79-121.29c-1.94-3.93-.34-8.75,3.56-10.74l81.47-41.55c4-1.92,8.83-.23,10.75,3.78l58.92,122.95c1.87,3.91,.24,8.65-3.65,10.56l-80.6,39.9c-1.13,.55-2.33,.83-3.54,.83Zm21.59-177.81c-1.02,0-2.06,.22-3.05,.7l-.15,.08-81.3,41.46c-3.42,1.74-4.82,5.96-3.12,9.4h0s59.79,121.29,59.79,121.29c.82,1.67,2.24,2.92,3.99,3.51,1.76,.6,3.64,.48,5.31-.34l80.63-39.91c3.4-1.68,4.83-5.82,3.19-9.24l-58.92-122.95c-1.21-2.53-3.74-4-6.37-4Z" fill="#002346"></path>
  </g>
  <g>
    <rect x="50.2" y="263.62" width="27.4" height="29.66" rx="2.42" ry="2.42" transform="translate(-112.75 53.92) rotate(-25.27)" fill="#e6e7e8"></rect>
    <path d="M59,297.41c-1.1,0-2.15-.62-2.65-1.67l-10.59-22.44c-.69-1.46-.06-3.2,1.39-3.89l20.4-9.63c1.46-.69,3.2-.06,3.89,1.39l10.59,22.44c.69,1.46,.06,3.2-1.39,3.89l-20.4,9.63c-.4,.19-.82,.28-1.24,.28Zm9.8-36.92c-.27,0-.55,.06-.82,.18l-20.4,9.63c-.46,.22-.81,.61-.99,1.09s-.15,1,.07,1.47l10.59,22.44c.45,.96,1.6,1.37,2.56,.92l20.4-9.63c.46-.22,.82-.61,.99-1.09s.15-1-.07-1.47l-10.59-22.44c-.33-.69-1.02-1.1-1.74-1.1Z" fill="#002346"></path>
  </g>
  <rect x="72.52" y="245.47" width="61.93" height="1.39" transform="translate(-101.52 75.06) rotate(-27.35)" fill="#d3d3d3"></rect>
  <rect x="76.32" y="251.14" width="61.93" height="1.39" transform="translate(-103.71 77.44) rotate(-27.35)" fill="#d3d3d3"></rect>
  <rect x="79.17" y="257.79" width="61.93" height="1.39" transform="translate(-106.44 79.49) rotate(-27.35)" fill="#d3d3d3"></rect>
  <rect x="82.97" y="265.37" width="61.93" height="1.39" transform="translate(-109.5 82.09) rotate(-27.35)" fill="#d3d3d3"></rect>
  <rect x="62.1" y="298.57" width="61.93" height="1.39" transform="translate(-127.09 76.21) rotate(-27.35)" fill="#d3d3d3"></rect>
  <rect x="65.9" y="304.26" width="61.93" height="1.39" transform="translate(-129.28 78.59) rotate(-27.35)" fill="#d3d3d3"></rect>
  <rect x="68.74" y="310.9" width="61.93" height="1.39" transform="translate(-132.01 80.64) rotate(-27.35)" fill="#d3d3d3"></rect>
  <rect x="72.53" y="318.49" width="61.93" height="1.39" transform="translate(-135.07 83.23) rotate(-27.35)" fill="#d3d3d3"></rect>
  <rect x="78.22" y="327.97" width="61.93" height="1.39" transform="translate(-138.79 86.9) rotate(-27.35)" fill="#d3d3d3"></rect>
  <rect x="82.02" y="333.66" width="61.93" height="1.39" transform="translate(-140.98 89.28) rotate(-27.35)" fill="#d3d3d3"></rect>
  <rect x="84.86" y="340.3" width="61.93" height="1.39" transform="translate(-143.71 91.33) rotate(-27.35)" fill="#d3d3d3"></rect>
  <rect x="88.66" y="347.89" width="61.93" height="1.39" transform="translate(-146.77 93.92) rotate(-27.35)" fill="#d3d3d3"></rect>
  <path d="M152.28,293.89l1.48,1.51,2.38-2.35-1.46-1.54c.68-1.06,1.11-2.27,1.26-3.52h2.26l-.12-3.43h-2.41c-.28-.97-.72-1.89-1.3-2.72l1.79-1.77-2.48-2.48-1.86,1.83c-.91-.6-1.93-1.03-3-1.27v-2.22l-3.41-.12v2.31c-.99,.19-1.93,.57-2.79,1.1l-1.51-1.54-2.43,2.35,1.48,1.5c-.62,.9-1.04,1.93-1.25,3h-2.65l.13,3.42h2.5c.21,1.07,.62,2.08,1.2,3l-1.63,1.61,2.44,2.5,1.57-1.55c.9,.66,1.92,1.15,3,1.43v2.08l3.41,.13v-2c1.21-.16,2.38-.59,3.4-1.26Zm-9.08-3.2c-2.18-2.49-1.93-6.28,.57-8.47,2.49-2.18,6.28-1.93,8.47,.57,2.16,2.47,1.94,6.2-.49,8.4-2.5,2.21-6.32,1.99-8.54-.5h0Z" fill="#d3d3d3"></path>
  <path d="M135.01,282.59l1.08,.91,1.44-1.71-1.1-.93c.39-.75,.6-1.58,.62-2.43l1.51-.13-.3-2.28-1.61,.15c-.23-.63-.57-1.22-1-1.74l1.03-1.29-1.78-1.51-1.13,1.34c-.65-.35-1.37-.57-2.1-.65l-.14-1.48-2.29,.13,.16,1.54c-.65,.19-1.26,.5-1.8,.91l-1.1-.94-1.44,1.72,1.08,.91c-.35,.63-.57,1.33-.65,2.05l-1.76,.16,.3,2.27,1.66-.15c.21,.72,.55,1.4,1,2l-1,1.18,1.78,1.51,1-1.13c.64,.38,1.34,.64,2.08,.77l.13,1.38,2.29-.12-.13-1.33c.8-.2,1.54-.58,2.17-1.11Zm-6.25-1.56c-1.6-1.53-1.66-4.06-.13-5.66,1.53-1.6,4.06-1.66,5.66-.13,1.57,1.5,1.66,3.98,.2,5.59-1.49,1.63-4.02,1.75-5.65,.26-.02-.02-.05-.04-.07-.06Z" fill="#d3d3d3"></path>
  <path d="M103.57,264.63s2.85-1,4.75,4.74l-2.82,1.41-1.93-6.15Z" fill="#002346"></path>
  <g opacity=".2">
    <path d="M103.57,264.63s2.85-1,4.75,4.74l-2.82,1.41-1.93-6.15Z"></path>
  </g>
  <g>
    <path d="M22.03,312.51c-3.68,1.84-5.18,6.32-3.34,10l63.5,127.33c2.33,4.57,7.91,6.41,12.5,4.12l87.78-43.85c4.62-2.29,6.51-7.9,4.22-12.52h0s-63.11-126.17-63.11-126.17c-2.14-4.27-7.34-6-11.62-3.87l-89.92,44.96Z" fill="#11546e"></path>
    <path d="M90.55,455.44c-3.59,0-7.07-1.97-8.8-5.37l-63.5-127.33c-1.96-3.92-.36-8.71,3.56-10.67l89.92-44.96c4.51-2.25,10.03-.42,12.29,4.09l63.11,126.16c2.42,4.87,.42,10.79-4.44,13.2l-87.78,43.85c-1.4,.7-2.89,1.03-4.36,1.03Zm25.26-188.3c-1.22,0-2.47,.28-3.63,.86l-89.92,44.96c-3.43,1.71-4.83,5.9-3.12,9.33l63.5,127.33c2.19,4.3,7.5,6.05,11.83,3.9l87.78-43.85c4.37-2.17,6.16-7.48,3.99-11.85l-63.12-126.17c-1.43-2.85-4.32-4.5-7.32-4.5Z" fill="#002346"></path>
  </g>
  <g>
    <path d="M26.26,323.47l59.79,121.29c1.82,3.7,6.29,5.22,9.99,3.4,0,0,0,0,.01,0l80.6-39.9c3.66-1.81,5.18-6.22,3.42-9.9l-58.92-122.95c-1.81-3.76-6.32-5.35-10.09-3.54-.05,.03-.11,.05-.16,.08l-81.3,41.46c-3.68,1.88-5.17,6.36-3.34,10.07Z" fill="#fff"></path>
    <path d="M92.75,449.42c-2.94,0-5.77-1.63-7.15-4.44l-59.79-121.29c-1.94-3.93-.34-8.75,3.56-10.74l81.47-41.54c4.01-1.92,8.83-.23,10.76,3.77l58.92,122.95c1.87,3.91,.24,8.65-3.65,10.56l-80.6,39.9c-1.13,.56-2.33,.82-3.52,.82Zm21.57-177.81c-1.02,0-2.06,.22-3.05,.7l-.15,.07-81.3,41.46c-3.42,1.74-4.82,5.96-3.12,9.4h0s59.79,121.29,59.79,121.29c1.7,3.44,5.88,4.86,9.32,3.17l80.61-39.91c3.4-1.68,4.83-5.82,3.19-9.24l-58.92-122.95c-1.21-2.52-3.74-4-6.38-4Z" fill="#002346"></path>
  </g>
  <g>
    <rect x="36.07" y="314.32" width="27.4" height="29.66" rx="2.42" ry="2.42" transform="translate(-135.75 52.74) rotate(-25.27)" fill="#e6e7e8"></rect>
    <path d="M44.87,348.11c-1.1,0-2.15-.62-2.65-1.67l-10.59-22.44c-.69-1.46-.06-3.2,1.39-3.89l20.4-9.63c.71-.33,1.5-.37,2.23-.11,.73,.26,1.32,.8,1.65,1.5l10.6,22.44c.69,1.46,.06,3.2-1.39,3.89l-20.4,9.63c-.4,.19-.82,.28-1.24,.28Zm9.8-36.92c-.28,0-.56,.06-.82,.19l-20.4,9.63c-.46,.22-.81,.61-.99,1.09s-.15,1,.07,1.47l10.59,22.44c.45,.96,1.6,1.37,2.56,.92l20.4-9.63c.46-.22,.82-.61,.99-1.09s.15-1-.07-1.47l-10.6-22.44c-.22-.46-.61-.82-1.09-.99-.21-.08-.43-.11-.65-.11Z" fill="#002346"></path>
  </g>
  <path d="M138.15,344.59l1.48,1.51,2.38-2.35-1.51-1.54c.68-1.06,1.11-2.27,1.26-3.52h2.26l-.12-3.42h-2.41c-.28-.97-.72-1.89-1.3-2.72l1.79-1.77-2.44-2.49-1.86,1.83c-.91-.6-1.93-1.03-3-1.27v-2.22l-3.41-.12v2.33c-.99,.19-1.93,.57-2.79,1.1l-1.51-1.54-2.38,2.35,1.48,1.5c-.62,.9-1.04,1.93-1.25,3h-2.65l.13,3.42h2.5c.21,1.07,.62,2.08,1.2,3l-1.63,1.61,2.44,2.5,1.57-1.55c.9,.66,1.92,1.15,3,1.43v2.08l3.41,.13v-2c1.2-.17,2.35-.61,3.36-1.28Zm-9.08-3.2c-2.18-2.49-1.93-6.28,.57-8.47s6.28-1.93,8.47,.57c2.16,2.47,1.94,6.2-.49,8.4-2.5,2.21-6.32,1.99-8.54-.5Z" fill="#d3d3d3"></path>
  <path d="M120.88,333.29l1.08,.91,1.44-1.71-1.1-.93c.39-.75,.6-1.58,.62-2.43l1.51-.13-.3-2.28-1.61,.15c-.23-.63-.57-1.22-1-1.74l1.08-1.29-1.78-1.51-1.14,1.34c-.65-.35-1.37-.57-2.1-.65l-.14-1.48-2.29,.13,.16,1.54c-.65,.19-1.26,.5-1.8,.91l-1.1-.94-1.44,1.72,1.08,.91c-.34,.62-.56,1.3-.65,2l-1.76,.16,.3,2.27,1.66-.15c.21,.72,.55,1.4,1,2l-1,1.18,1.78,1.51,.95-1.13c.64,.38,1.34,.64,2.08,.77l.13,1.38,2.29-.13-.13-1.32c.8-.19,1.54-.55,2.18-1.06Zm-6.2-1.56c-1.6-1.53-1.66-4.06-.13-5.66,1.53-1.6,4.06-1.66,5.66-.13,1.57,1.5,1.66,3.98,.2,5.59-1.49,1.63-4.02,1.75-5.65,.26-.02-.02-.05-.04-.07-.06Z" fill="#d3d3d3"></path>
  <polygon points="103.13 281.2 108.32 279.8 103.57 264.63 98.55 266.63 103.13 281.2" fill="#002346"></polygon>
  <g>
    <path d="M392.22,339.55h40.84v173.55h-40.84c-1.76,0-3.18-1.42-3.18-3.18v-167.19c0-1.76,1.42-3.18,3.18-3.18h0Z" fill="#fff"></path>
    <path d="M433.56,513.6h-41.34c-2.03,0-3.68-1.65-3.68-3.68v-167.19c0-2.03,1.65-3.68,3.68-3.68h41.34v174.55Zm-41.34-173.55c-1.48,0-2.68,1.2-2.68,2.68v167.19c0,1.48,1.2,2.68,2.68,2.68h40.34v-172.55h-40.34Z" fill="#002346"></path>
  </g>
  <path d="M638.47,340.84c-.13,0-.26-.02-.39-.06-.65-.22-1-.92-.8-1.57l20.26-62.6c8.22-25.4,11.03-52.25,8.23-78.8-2.15-19.71-6.78-31.94-6.83-32.06-.25-.64,.07-1.36,.71-1.6,0,0,0,0,.01,0,.64-.24,1.36,.08,1.61,.72,.19,.51,4.8,12.65,7,32.68,1.28,11.86,1.44,23.81,.48,35.7-1.22,15-4.18,29.82-8.82,44.14l-20.25,62.55c-.15,.54-.65,.91-1.21,.91Z" fill="#002346"></path>
  <g>
    <polygon points="263.28 330.09 251.64 422.06 280.92 519.35 334.43 513.1 339.14 467.58 341.38 397.67 334.43 345.53 298.94 315.84 268.73 311.1 263.28 330.09" fill="#11546e"></polygon>
    <path d="M280.56,519.89l-.12-.4-29.31-97.39v-.11s11.67-92.04,11.67-92.04l5.57-19.42,30.78,4.83,35.75,29.9,.03,.19,6.95,52.14-2.24,69.99-4.75,45.95-54.33,6.34Zm-28.41-97.88l29.13,96.79,52.7-6.16,4.67-45.12,2.24-69.87-6.92-51.87-35.24-29.48-29.64-4.65-5.32,18.53-11.62,91.83Z" fill="#002346"></path>
  </g>
  <g>
    <path d="M396,286.7l-8.83,4.14c-.59,.28-1.13,.65-1.59,1.11-.93,.9-1.52,2.1-1.68,3.38l-.42,3.35c-.25,2-1.53,3.72-3.37,4.53-5.54,2.46-17.37,8.84-22.37,20.27l-14.22,21.76c-1.46,2.86-1.42,6.26,.11,9.08,3.15,5.69,5.84,11.62,8.05,17.73l1.3,3.53c-.46-.32-15.33-10.85-27.48-14.87,0,0-19.93-5-27.52-29.7l-15.72-41.25,1-3.06c10.92-5.29,22.19-9.82,33.73-13.54l17.07-5.69s30.13-12.05,34.62-22.21c.34-.79,1.25-1.16,2.05-.82,.02,0,.04,.02,.05,.02,5.57,2.68,23.9,13.58,25.22,42.24Z" fill="#322c6d"></path>
    <path d="M353.99,376.9l-1.3-.91c-2.64-1.85-16.11-11.09-27.35-14.81-.17-.04-20.25-5.34-27.84-30.03l-15.77-41.38,1.12-3.43,.19-.09c10.9-5.28,22.27-9.85,33.79-13.57l17.07-5.69c.27-.11,29.96-12.08,34.32-21.94,.21-.5,.61-.89,1.12-1.1,.51-.21,1.07-.2,1.58,.02,5.72,2.75,24.25,13.86,25.58,42.7l.02,.33-9.13,4.28c-.54,.25-1.03,.6-1.45,1.01-.85,.82-1.39,1.92-1.53,3.08l-.42,3.35c-.27,2.16-1.67,4.05-3.66,4.92-4.98,2.21-17.12,8.59-22.11,20.01l-14.26,21.83c-1.36,2.67-1.33,5.89,.13,8.57,3.14,5.69,5.86,11.68,8.08,17.8l1.85,5.02Zm-71.21-87.15l15.66,41.08c7.42,24.16,26.98,29.34,27.17,29.39,10.15,3.36,22.01,11.09,26.34,14.05l-.75-2.05c-2.2-6.07-4.9-12.02-8.02-17.66-1.62-2.97-1.66-6.54-.12-9.55l14.25-21.81c4.91-11.24,16.26-17.64,22.59-20.45,1.67-.74,2.85-2.32,3.08-4.14l.42-3.35c.17-1.39,.82-2.7,1.83-3.68,.5-.49,1.08-.9,1.72-1.2l8.53-4c-1.43-28.04-19.42-38.83-24.92-41.48-.57-.25-1.19,0-1.42,.54-4.52,10.24-33.66,21.98-34.89,22.48l-17.1,5.7c-11.42,3.68-22.68,8.2-33.48,13.42l-.88,2.69Z" fill="#002346"></path>
  </g>
  <g>
    <path d="M225.94,300.06l-13.65-11.22c-.34-.28-.4-.78-.12-1.12,3.96-4.92,9.8-7.96,16.12-8.38,0,0-1.39,13.13-2.34,20.72Z" fill="#fff"></path>
    <path d="M226.32,301.02l-14.35-11.8c-.55-.45-.64-1.27-.2-1.82,4.04-5.02,10.04-8.14,16.47-8.56l.59-.04-.06,.59c-.01,.13-1.4,13.22-2.34,20.73l-.11,.9Zm1.4-21.14c-5.93,.55-11.43,3.5-15.17,8.15-.1,.12-.08,.31,.05,.42l12.95,10.65c.81-6.63,1.89-16.67,2.16-19.21Z" fill="#002346"></path>
  </g>
  <g>
    <path d="M244.88,274.37c10.44,3.1,13.07-3.88,13.07-3.88,14,14.53,25.28,16.21,25.28,16.21-6.22,17.34,2.45,30.14,2.45,30.14,.94,9.48-3.76,13.28-3.76,13.28-9.45,7.58-19,0-19,0-9-6.17-37-30-37-30,1-5.69,1.4-20.73,1.4-20.73,0,0,5.07,2.48,11.31-1.37l6.25-3.65Z" fill="#f2b3c1"></path>
    <path d="M272.83,333.97c-5.77,0-10.16-3.41-10.23-3.46-8.89-6.09-36.73-29.77-37.01-30.01l-.22-.19,.05-.28c.98-5.59,1.39-20.51,1.39-20.66l.02-.78,.71,.34s4.91,2.3,10.82-1.35l6.45-3.77,.21,.06c9.84,2.92,12.35-3.31,12.46-3.58l.28-.74,.55,.57c13.7,14.21,24.88,16.04,24.99,16.06l.61,.09-.21,.58c-6.06,16.88,2.31,29.56,2.39,29.69l.07,.11v.13c.97,9.64-3.73,13.56-3.93,13.72-3.24,2.59-6.5,3.46-9.4,3.46Zm-46.37-34.05c2.64,2.24,28.28,23.98,36.74,29.78,.41,.32,9.38,7.25,18.4,.02,.04-.03,4.43-3.74,3.58-12.72-.82-1.3-8.19-13.68-2.63-29.93-2.5-.55-12.39-3.39-24.48-15.74-1.02,1.74-4.52,6.04-13.13,3.57l-6.06,3.54c-5.1,3.15-9.43,2.22-11.08,1.67-.09,3.04-.49,14.63-1.34,19.8Z" fill="#002346"></path>
  </g>
  <g>
    <path d="M285.68,316.84l12.32,14.22,.95-15.17,8.14,18.1c.06,.13,.25,.07,.22-.07l-4.69-24.99c-.53-2.82-2.1-5.35-4.39-7.08l-15.95-12.01c-2.61,9.09-1.38,18.85,3.4,27Z" fill="#fff"></path>
    <path d="M307.18,334.56c-.24,0-.46-.14-.56-.37l-7.31-16.26-.9,14.37-13.17-15.22c-4.83-8.23-6.09-18.22-3.45-27.39l.2-.7,16.53,12.45c2.4,1.81,4.03,4.43,4.58,7.38l4.69,24.99c.06,.31-.12,.61-.42,.7-.06,.02-.13,.03-.19,.03Zm.35-.78h0s0,0,0,0Zm-8.96-19.94l7.65,17.02-4.09-21.84c-.51-2.71-2-5.11-4.2-6.77l-15.37-11.57c-2.3,8.7-1.03,18.08,3.52,25.87l11.49,13.26,1-15.97Z" fill="#002346"></path>
  </g>
  <g>
    <path d="M262.9,330.07s21.78,68.28,22.78,136.56v42.77h-11.39s-27.51,11.29-36,44.49l-75.97-.87c-5.4-.06-10.33-3.2-12.56-8.13-2.73-6.04-5.36-16.35-5.36-33.68,.17-6.68,.8-13.33,1.89-19.92-.04-8.48-.54-16.95-1.5-25.37-.24-1.77,.13-3.57,1.05-5.1l4.89-8.2c.79-1.33,1.05-2.92,.7-4.43-2.73-11.97-13.82-66.99,7.21-87.48l51.21-51.52,53.05,20.88Z" fill="#322c6d"></path>
    <path d="M238.67,554.39h-.39s-75.97-.88-75.97-.88c-5.62-.06-10.72-3.37-13.01-8.42-3.59-7.93-5.41-19.33-5.41-33.88,.17-6.68,.81-13.41,1.9-20-.04-8.34-.54-16.86-1.5-25.23-.25-1.87,.14-3.79,1.12-5.41l4.89-8.2c.73-1.23,.96-2.67,.65-4.06-2.51-11.04-13.97-67.18,7.35-87.95l51.44-51.75,.31,.12,53.27,20.97,.07,.23c.22,.68,21.81,69.13,22.8,136.71v43.28h-11.79c-1.71,.75-27.53,12.48-35.62,44.11l-.1,.38Zm-28.7-244.62l-50.98,51.29c-20.94,20.4-9.57,76.06-7.08,87.01,.37,1.64,.1,3.34-.76,4.79l-4.89,8.21c-.86,1.43-1.21,3.13-.98,4.78,.96,8.42,1.47,16.97,1.5,25.44-1.08,6.63-1.72,13.31-1.89,19.93,0,14.4,1.79,25.66,5.32,33.46,2.13,4.7,6.88,7.78,12.11,7.83l75.58,.87c8.57-32.77,35.92-44.33,36.2-44.45l.19-.04h10.89v-42.27c-.96-65.47-21.31-131.79-22.69-136.18l-52.52-20.67Z" fill="#002346"></path>
  </g>
  <g>
    <path d="M330.83,362.78s7,26.09,5.1,80.14l-2.39,61.83h5.6s-1.31-23.89,6.27-38.12c0,0,31.28-55,7.58-91,0-.05-12.09-8.58-22.16-12.85Z" fill="#322c6d"></path>
    <path d="M339.14,505.25h-6.12l.02-.52,2.39-61.83c1.88-53.33-5.01-79.73-5.08-79.99l-.26-.99,.94,.4c7.91,3.35,20.79,11.45,22.32,13.08l.07-.04c23.6,35.84-7.25,90.97-7.56,91.52-7.42,13.93-6.22,37.61-6.21,37.85l.03,.53h-.53Zm-5.08-1h4.56c-.13-3.61-.58-24.84,6.35-37.86,.32-.56,30.82-55.09,7.65-90.42-1.03-.79-11.82-8.23-21.06-12.33,1.21,5.26,6.56,31.52,4.88,79.3l-2.37,61.31Z" fill="#002346"></path>
  </g>
  <g>
    <rect x="643.21" y="201.08" width="55.95" height="23.71" fill="#e6e7e8"></rect>
    <path d="M699.66,225.29h-56.95v-24.71h56.95v24.71Zm-55.95-1h54.95v-22.71h-54.95v22.71Z" fill="#002346"></path>
  </g>
  <path d="M658.91,213.44h-9.5c-.28,0-.5-.22-.5-.5s.22-.5,.5-.5h9.5c.28,0,.5,.22,.5,.5s-.22,.5-.5,.5Z" fill="#002346"></path>
  <path d="M695.33,213.44h-9.5c-.28,0-.5-.22-.5-.5s.22-.5,.5-.5h9.5c.28,0,.5,.22,.5,.5s-.22,.5-.5,.5Z" fill="#002346"></path>
  <g>
    <path d="M643.21,243.76h14.83l40.97-18.9s.02-.07-.02-.07h-55.78v18.97Z" fill="#fff"></path>
    <path d="M658.15,244.26h-15.44v-19.97h56.68l.21,.82-.39,.21-41.07,18.95Zm-14.44-1h14.22l38.95-17.97h-53.17v17.97Z" fill="#002346"></path>
  </g>
  <g>
    <rect x="643.21" y="276.96" width="81.56" height="23.71" fill="#e6e7e8"></rect>
    <path d="M725.27,301.17h-82.56v-24.71h82.56v24.71Zm-81.56-1h80.56v-22.71h-80.56v22.71Z" fill="#002346"></path>
  </g>
  <path d="M658.91,289.31h-9.5c-.28,0-.5-.22-.5-.5s.22-.5,.5-.5h9.5c.28,0,.5,.22,.5,.5s-.22,.5-.5,.5Z" fill="#002346"></path>
  <path d="M699.16,289.31h-24.15c-.28,0-.5-.22-.5-.5s.22-.5,.5-.5h24.15c.28,0,.5,.22,.5,.5s-.22,.5-.5,.5Z" fill="#002346"></path>
  <path d="M716.71,289.31h-9.5c-.28,0-.5-.22-.5-.5s.22-.5,.5-.5h9.5c.28,0,.5,.22,.5,.5s-.22,.5-.5,.5Z" fill="#002346"></path>
  <g>
    <path d="M643.27,319.63h40.37s.02,0,.03,0l40.35-18.83c.07-.03,.04-.13-.03-.13h-80.71s-.07,.03-.07,.07v18.83s.03,.07,.07,.07Z" fill="#fff"></path>
    <path d="M683.64,320.13h-40.87l-.07-.57v-19.33l.57-.07h81.11l.16,.44c.06,.26-.07,.52-.31,.64l-40.45,18.88h-.14Zm-39.93-.99h39.84l38.5-17.97h-78.34v17.97Z" fill="#002346"></path>
  </g>
  <g>
    <polygon points="564.49 156.51 519.92 184.96 462.07 181.17 564.49 110.04 564.49 156.51" fill="#e6e7e8"></polygon>
    <path d="M520.05,185.47l-59.44-3.89,104.38-72.49v47.7l-44.94,28.69Zm-56.52-4.71l56.26,3.69,44.2-28.21v-45.24l-100.46,69.77Z" fill="#002346"></path>
  </g>
  <g>
    <polygon points="564.49 542.38 459.11 509.9 564.49 509.9 564.49 542.38" fill="#e6e7e8"></polygon>
    <path d="M564.99,543.06l-.65-.2-108.55-33.46h109.2v33.66Zm-102.56-32.66l101.56,31.3v-31.3h-101.56Z" fill="#002346"></path>
  </g>
  <g>
    <polygon points="459.11 509.9 459.11 530.59 564.49 572.85 564.49 542.38 459.11 509.9" fill="#fff"></polygon>
    <path d="M564.99,573.59l-106.38-42.66v-21.71l.65,.2,105.73,32.59v31.58Zm-105.38-43.34l104.38,41.86v-29.36l-104.38-32.17v19.67Z" fill="#002346"></path>
  </g>
  <g>
    <polygon points="462.07 181.17 462.96 509.9 564.49 509.9 564.49 457.88 487.54 451.11 486.72 277.82 491.68 240.44 491.47 202.98 519.92 184.96 462.07 181.17" fill="#fff"></polygon>
    <path d="M564.99,510.4h-102.53v-.5s-.89-329.26-.89-329.26l59.91,3.93-29.51,18.69,.21,37.18-4.96,37.45,.82,172.77,76.95,6.77v52.98Zm-101.53-1h100.53v-51.06l-76.95-6.77v-.46s-.82-173.29-.82-173.29l4.96-37.45-.22-37.67,27.39-17.35-55.79-3.65,.89,327.7Z" fill="#002346"></path>
  </g>
  <polygon points="491.52 212.42 564.49 169.79 564.49 177.37 491.52 220.03 491.52 212.42" fill="#cbcbcb"></polygon>
  <g>
    <polygon points="486.8 294.03 486.72 277.82 564.49 240.92 564.49 431.54 487.43 426.9 486.8 294.03" fill="#e6e7e8"></polygon>
    <path d="M564.99,432.07l-78.06-4.7v-.47s-.71-149.4-.71-149.4l78.77-37.38v191.94Zm-77.06-5.64l76.06,4.58V241.71l-76.77,36.42,.71,148.29Z" fill="#002346"></path>
  </g>
  <g>
    <polygon points="541.27 310.15 541.27 271.74 486.8 294.03 486.95 326.41 541.27 310.15" fill="#fff"></polygon>
    <path d="M486.45,327.08l-.16-33.39,55.47-22.7v39.53l-55.32,16.56Zm.85-32.72l.15,31.37,53.32-15.96v-37.29l-53.47,21.88Z" fill="#002346"></path>
  </g>
  <g>
    <polygon points="505.69 341.45 505.22 406.78 564.49 404.99 564.66 326.09 505.69 341.45" fill="#d1d3d4"></polygon>
    <path d="M504.71,407.3l.48-66.23,59.97-15.62v.65s-.17,79.38-.17,79.38l-60.27,1.82Zm1.47-65.46l-.46,64.43,58.27-1.76,.17-77.77-57.97,15.1Z" fill="#002346"></path>
  </g>
  <path d="M638.5,514.49c-.42,0-.82-.21-1.05-.56-.38-.58-.22-1.35,.36-1.73,16.71-11.06,29.23-36.52,37.22-75.68,6.43-31.51,9.93-71.85,10.39-119.91,.79-81.88-7.63-158.75-7.72-159.52-.07-.68,.43-1.3,1.11-1.37,.67-.08,1.29,.4,1.37,1.08,0,0,0,.02,0,.02,.09,.77,8.52,77.76,7.73,159.8-.46,48.21-4,88.72-10.43,120.39-8.13,39.84-21,65.83-38.3,77.27-.2,.14-.44,.21-.68,.21Z" fill="#002346"></path>
  <g>
    <polygon points="432.05 285.79 457.48 271.74 457.48 279.8 462.34 279.8 462.96 509.9 459.11 509.9 459.11 523.59 432.05 512.96 432.05 285.79" fill="#e6e7e8"></polygon>
    <path d="M459.61,524.32l-28.06-11.02v-227.81l26.43-14.6v8.41h4.86v.5s.62,230.6,.62,230.6h-3.85v13.92Zm-27.06-11.7l26.06,10.24v-13.46h3.85l-.62-229.1h-4.86v-7.71l-24.43,13.5v226.53Z" fill="#002346"></path>
  </g>
  <g>
    <path d="M390.77,359.47h40.91v7.59h-40.91c-2,0-3.63-1.63-3.63-3.63h0v-.33c0-2,1.63-3.63,3.63-3.63h0Z" fill="#e6e7e8"></path>
    <path d="M432.18,367.56h-41.41c-2.28,0-4.13-1.85-4.13-4.13v-.33c0-2.28,1.85-4.13,4.13-4.13h41.41v8.59Zm-41.41-7.59c-1.73,0-3.13,1.4-3.13,3.13v.33c0,1.73,1.4,3.13,3.13,3.13h40.41v-6.59h-40.41Z" fill="#002346"></path>
  </g>
  <g>
    <path d="M390.77,388.84h40.91v7.59h-40.91c-2,0-3.63-1.63-3.63-3.63h0v-.33c0-2,1.63-3.63,3.63-3.63h0Z" fill="#e6e7e8"></path>
    <path d="M432.18,396.93h-41.41c-2.28,0-4.13-1.85-4.13-4.13v-.33c0-2.28,1.85-4.13,4.13-4.13h41.41v8.59Zm-41.41-7.59c-1.73,0-3.13,1.4-3.13,3.13v.33c0,1.73,1.4,3.13,3.13,3.13h40.41v-6.59h-40.41Z" fill="#002346"></path>
  </g>
  <g>
    <path d="M390.77,416.37h40.91v7.59h-40.91c-2,0-3.63-1.63-3.63-3.63h0v-.33c0-2,1.63-3.63,3.63-3.63h0Z" fill="#e6e7e8"></path>
    <path d="M432.18,424.46h-41.41c-2.28,0-4.13-1.85-4.13-4.13v-.33c0-2.28,1.85-4.13,4.13-4.13h41.41v8.59Zm-41.41-7.59c-1.73,0-3.13,1.4-3.13,3.13v.33c0,1.73,1.4,3.13,3.13,3.13h40.41v-6.59h-40.41Z" fill="#002346"></path>
  </g>
  <g>
    <path d="M390.77,445.77h40.91v7.59h-40.91c-2,0-3.63-1.63-3.63-3.63h0v-.33c0-2,1.63-3.63,3.63-3.63h0Z" fill="#e6e7e8"></path>
    <path d="M432.18,453.86h-41.41c-2.28,0-4.13-1.85-4.13-4.13v-.33c0-2.28,1.85-4.13,4.13-4.13h41.41v8.59Zm-41.41-7.59c-1.73,0-3.13,1.4-3.13,3.13v.33c0,1.73,1.4,3.13,3.13,3.13h40.41v-6.59h-40.41Z" fill="#002346"></path>
  </g>
  <g>
    <path d="M390.77,481.84h40.91v7.59h-40.91c-2,0-3.63-1.63-3.63-3.63h0v-.33c0-2,1.63-3.63,3.63-3.63h0Z" fill="#e6e7e8"></path>
    <path d="M432.18,489.93h-41.41c-2.28,0-4.13-1.85-4.13-4.13v-.33c0-2.28,1.85-4.13,4.13-4.13h41.41v8.59Zm-41.41-7.59c-1.73,0-3.13,1.4-3.13,3.13v.33c0,1.73,1.4,3.13,3.13,3.13h40.41v-6.59h-40.41Z" fill="#002346"></path>
  </g>
  <g>
    <circle cx="356.32" cy="201.56" r="24.18" fill="#11546e"></circle>
    <path d="M356.32,226.24c-13.61,0-24.68-11.07-24.68-24.68s11.07-24.68,24.68-24.68,24.68,11.07,24.68,24.68-11.07,24.68-24.68,24.68Zm0-48.36c-13.06,0-23.68,10.62-23.68,23.68s10.62,23.68,23.68,23.68,23.68-10.62,23.68-23.68-10.62-23.68-23.68-23.68Z" fill="#002346"></path>
  </g>
  <g>
    <path d="M356.32,205.27l-8.53-9.95c-1.32-1.54-3.62-1.74-5.18-.44h0c-1.57,1.32-1.78,3.66-.46,5.23,0,.01,.02,.02,.03,.03l12.14,14.05c1.25,1.46,3.45,1.63,4.91,.38,.36-.3,.65-.68,.85-1.1l22.54-45.24c.85-1.62,.23-3.63-1.39-4.49-.08-.04-.16-.08-.24-.11h0c-1.61-.69-3.47-.01-4.26,1.55l-20.41,40.09Z" fill="#fff"></path>
    <path d="M356.96,215.9c-.1,0-.21,0-.31-.01-1.06-.08-2.02-.57-2.72-1.38l-12.14-14.05c-.76-.9-1.1-1.99-1-3.11,.1-1.12,.63-2.14,1.49-2.86,1.76-1.47,4.39-1.24,5.88,.5l8.04,9.38,20.07-39.42c.9-1.79,3.06-2.58,4.9-1.78,.09,.04,.19,.08,.28,.13,.9,.47,1.56,1.27,1.87,2.25,.3,.97,.21,2.01-.27,2.91l-22.54,45.23c-.24,.48-.57,.9-.97,1.25-.73,.62-1.64,.96-2.58,.96Zm-12-21.38c-.72,0-1.45,.24-2.04,.74-.66,.55-1.06,1.32-1.13,2.18-.08,.85,.19,1.69,.74,2.34l12.16,14.08c1.07,1.25,2.96,1.4,4.2,.32,.3-.26,.55-.58,.73-.94l22.54-45.24c.36-.68,.43-1.44,.2-2.16-.22-.72-.71-1.31-1.38-1.66-.07-.04-.14-.07-.21-.1-1.36-.58-2.95,0-3.62,1.32l-20.75,40.76-9.02-10.52c-.63-.74-1.53-1.12-2.44-1.12Z" fill="#002346"></path>
  </g>
  <g>
    <rect x="242.19" y="181.08" width="71.63" height="107.96" rx="35.81" ry="35.81" transform="translate(-80.28 170.5) rotate(-30)" fill="#f2b3c1"></rect>
    <path d="M287.15,287.1c-12.56,0-24.79-6.51-31.51-18.15l-18.16-31.46c-10.01-17.34-4.05-39.6,13.29-49.61,17.34-10.01,39.6-4.05,49.61,13.29l18.16,31.46c10.01,17.34,4.05,39.6-13.29,49.61-5.71,3.29-11.94,4.86-18.1,4.86Zm-18.28-103.1c-6.12,0-12.16,1.6-17.6,4.75-16.86,9.73-22.66,31.37-12.92,48.23l18.16,31.46c9.73,16.86,31.37,22.66,48.23,12.92,16.86-9.73,22.66-31.37,12.92-48.23l-18.16-31.46c-4.72-8.17-12.33-14.01-21.44-16.45-3.04-.82-6.13-1.22-9.2-1.22Z" fill="#002346"></path>
  </g>
  <g>
    <path d="M255.07,273.84c-2.81,1.92-6.5,2-10.19,.57-4.17-1.76-7.72-4.72-10.2-8.5-5.64-8.22-5.64-18,0-21.84,4.25-2.91,10.51-1.59,15.73,2.78h0c1.76,1.49,3.31,3.21,4.6,5.11,5.67,8.22,5.67,17.99,.06,21.88Z" fill="#f2b3c1"></path>
    <path d="M249.79,275.9c-1.62,0-3.34-.34-5.1-1.02-4.29-1.81-7.89-4.82-10.44-8.69-3.44-5.02-4.96-10.89-4.06-15.69,.56-2.99,2.01-5.36,4.19-6.84,4.34-2.97,10.75-1.87,16.34,2.81,1.8,1.52,3.38,3.27,4.69,5.21,5.8,8.4,5.77,18.53-.07,22.58h0c-1.6,1.1-3.5,1.65-5.56,1.65Zm-9.82-32.89c-1.85,0-3.56,.48-5.01,1.48-1.96,1.33-3.26,3.47-3.77,6.19-.86,4.55,.6,10.14,3.9,14.94,2.44,3.72,5.89,6.59,9.98,8.32,3.67,1.42,7.13,1.24,9.71-.52,5.38-3.73,5.29-13.23-.19-21.18-1.27-1.87-2.78-3.55-4.51-5.01-3.31-2.77-6.91-4.22-10.11-4.22Z" fill="#002346"></path>
  </g>
  <g>
    <path d="M302.62,188.84c-13.29,10-35.31,7.41-42.81,6.12-1.83-.3-3.69,.33-4.95,1.69-1.82,1.93-3.32,4.14-4.43,6.55-5.83,16.33,11.53,25.21,11.53,25.21v23.91c-4.59-3.68-11.11-5.34-11.51-5.44h0c-5.22-4.37-11.48-5.69-15.73-2.78-5.62,3.86-5.62,13.62,0,21.84,2.48,3.76,6.01,6.7,10.16,8.46l-4.4,2.59c-13.14,8.06-15.51,0-15.51,0-1.9-3.8-8.54-9.49-8.54-9.49-20.86-12.36-28.45-24.66-28.45-24.66-3.82-.99-7.08-3.46-9.07-6.86-4.34-17.3,10-24.43,10-24.43,6.64-4.75,9.48-22.76,9.48-22.76,4.75-17.08,13.28-5.7,13.28-5.7,18-24.65,32.25-16.12,32.25-16.12,5.85,3.92,13.57,3.53,19-.95,13.28-13.27,31.3-9.48,31.3-9.48,8.47,1.21,12.64,5.5,14.65,10,3.48,7.9,.64,17.07-6.25,22.3Z" fill="#002346"></path>
    <path d="M230.63,281.08c-.99,0-1.89-.16-2.72-.47-2.68-1.03-3.4-3.37-3.43-3.47-1.8-3.58-8.32-9.2-8.38-9.25-19.34-11.45-27.42-23.07-28.44-24.61-3.84-1.05-7.18-3.61-9.19-7.04l-.05-.13c-4.39-17.49,10.12-24.93,10.26-25,6.32-4.53,9.18-22.21,9.21-22.39,1.65-5.95,3.95-9.21,6.85-9.76,3.11-.58,5.88,2.14,6.9,3.32,17.88-24.09,32.38-15.82,32.53-15.74,5.64,3.78,13.21,3.4,18.42-.91,13.28-13.28,31.54-9.62,31.72-9.58,7.37,1.05,12.43,4.51,15,10.29,3.51,7.96,.87,17.38-6.4,22.9h0c-13.69,10.31-36.52,7.36-43.2,6.21-1.67-.28-3.35,.3-4.5,1.54-1.79,1.9-3.25,4.05-4.34,6.42-5.6,15.69,11.13,24.47,11.3,24.56l.27,.14v25.26l-.81-.65c-4.52-3.62-11.04-5.28-11.32-5.34l-.2-.1c-5.23-4.38-11.17-5.46-15.13-2.75-5.37,3.69-5.32,13.18,.13,21.15,2.44,3.7,5.88,6.56,9.94,8.28l.91,.39-5.25,3.09c-3.97,2.43-7.35,3.66-10.1,3.66Zm-51.25-45.29c1.91,3.23,5.09,5.63,8.73,6.57l.19,.05,.11,.17c.08,.12,7.79,12.35,28.28,24.49,.34,.29,6.81,5.85,8.73,9.7,.06,.16,.66,2.07,2.88,2.91,2.76,1.05,6.89-.03,11.92-3.11l3.57-2.1c-3.86-1.83-7.13-4.66-9.49-8.25-5.75-8.41-5.69-18.52,.13-22.53,4.32-2.96,10.68-1.88,16.25,2.74,.89,.23,6.44,1.76,10.78,4.89v-22.61c-2.22-1.25-17-10.27-11.5-25.67,1.15-2.51,2.67-4.75,4.54-6.73,1.38-1.48,3.4-2.17,5.39-1.84,6.58,1.13,29.05,4.04,42.43-6.03,6.91-5.24,9.41-14.17,6.09-21.7-2.43-5.43-7.23-8.7-14.26-9.71-.21-.04-17.95-3.58-30.88,9.34-5.59,4.62-13.65,5.02-19.63,1.01-.12-.07-14.08-7.95-31.57,16l-.4,.54-.41-.54s-3.09-4.06-6.34-3.45c-2.49,.47-4.53,3.49-6.05,8.98-.1,.69-2.94,18.22-9.67,23.03-.64,.33-13.96,7.19-9.82,23.83Z" fill="#002346"></path>
  </g>
  <g>
    <path d="M216.43,292.22l-4.76-3.82h0s-2.38,3.67-2.88,10.58c-.44,7.19,2.11,14.24,7.05,19.49l39.34,42.63,8.08-31-46.83-37.88Z" fill="#fff"></path>
    <path d="M255.44,362.11l-39.96-43.3c-5.01-5.32-7.63-12.56-7.18-19.86,.5-6.96,2.86-10.67,2.96-10.82l.3-.46,5.19,4.17,47.08,38.08-.08,.31-8.31,31.89Zm-43.62-72.95c-.63,1.2-2.15,4.57-2.53,9.86-.43,7.02,2.09,13.99,6.92,19.11l38.72,41.96,7.77-29.8-46.58-37.67-4.3-3.46Z" fill="#002346"></path>
  </g>
  <g>
    <polygon points="457.48 258.94 564.49 201.08 564.49 224.79 457.48 279.8 457.48 258.94" fill="#e6e7e8"></polygon>
    <path d="M456.98,280.62v-21.98l108.01-58.4v24.85l-108.01,55.52Zm1-21.38v19.74l106.01-54.5v-22.57l-106.01,57.32Z" fill="#002346"></path>
  </g>
  <g>
    <path d="M458.06,279.76l28.66-1.94,77.77-37.45v-15.58l-106.49,54.74c-.12,.06-.07,.24,.06,.23Z" fill="#fff"></path>
    <path d="M458.05,280.26c-.28,0-.52-.18-.6-.45-.08-.29,.05-.58,.31-.72l107.22-55.12v16.71l-.28,.14-77.86,37.49h-.1s-28.66,1.95-28.66,1.95c-.01,0-.03,0-.04,0Zm105.94-54.65l-104.13,53.53,26.73-1.81,77.4-37.27v-14.45Z" fill="#002346"></path>
  </g>
  <g>
    <polygon points="459.11 426.8 459.11 448.61 564.49 457.88 564.49 433.77 459.11 426.8" fill="#e6e7e8"></polygon>
    <path d="M564.99,458.43l-106.38-9.36v-22.8l106.38,7.04v25.12Zm-105.38-10.27l104.38,9.18v-23.1l-104.38-6.9v20.82Z" fill="#002346"></path>
  </g>
  <g>
    <polygon points="459.11 426.8 485.78 426.8 564.49 431.54 564.49 433.77 459.11 426.8" fill="#e6e7e8"></polygon>
    <path d="M564.99,434.3l-105.91-7,.03-1h26.67l79.21,4.77v3.23Zm-90.75-7l89.75,5.94v-1.22l-78.24-4.71h-11.51Z" fill="#002346"></path>
  </g>
  <path d="M480.36,436.22c-.2,0-.39-.05-.57-.14-.61-.31-.85-1.06-.54-1.67,0,0,0,0,0-.01l9.55-18.56c5.94-11.49,9.03-24.24,9-37.18-.14-22-7.56-44.66-13.77-59.82-3.9-9.63-8.45-18.98-13.61-28,0,0-.05-.08-.07-.13-7.6-16.95-13-32.51-16.15-46.26-2.51-11.05-3.53-21-3-29.48,.85-14.75,5.93-20.24,6.15-20.47,.5-.48,1.29-.46,1.77,.04,.44,.46,.46,1.19,.04,1.68-.1,.11-4.78,5.36-5.49,19.3-.67,13,2.08,36.45,19,74.11,5.2,9.08,9.77,18.51,13.7,28.21,6.3,15.38,13.83,38.4,14,60.79,.02,13.34-3.18,26.5-9.33,38.34l-9.55,18.54c-.21,.44-.65,.72-1.14,.71Z" fill="#002346"></path>
  <g>
    <rect x="643.21" y="125.21" width="55.95" height="23.71" fill="#e6e7e8"></rect>
    <path d="M699.66,149.42h-56.95v-24.71h56.95v24.71Zm-55.95-1h54.95v-22.71h-54.95v22.71Z" fill="#002346"></path>
  </g>
  <path d="M658.91,137.57h-9.5c-.28,0-.5-.22-.5-.5s.22-.5,.5-.5h9.5c.28,0,.5,.22,.5,.5s-.22,.5-.5,.5Z" fill="#002346"></path>
  <path d="M695.33,137.57h-9.5c-.28,0-.5-.22-.5-.5s.22-.5,.5-.5h9.5c.28,0,.5,.22,.5,.5s-.22,.5-.5,.5Z" fill="#002346"></path>
  <g>
    <path d="M643.21,169.79h14.83l40.72-20.67c.1-.05,.06-.2-.05-.2h-55.5v20.87Z" fill="#fff"></path>
    <path d="M658.16,170.29h-15.45v-21.87h56c.28,0,.52,.19,.59,.46,.07,.27-.06,.55-.31,.68l-40.83,20.72Zm-14.45-1h14.21l39.15-19.87h-53.36v19.87Z" fill="#002346"></path>
  </g>
  <path d="M537.61,228.95c-.13,0-.25-.02-.37-.06-6.78-1.97-13.02-5.46-18.25-10.21-6.74-6.36-9.7-15.77-7.81-24.84,1.45-6.95,5.82-12.93,12-16.42,2.87-1.7,6-2.91,9.27-3.56,.67-.16,1.35,.25,1.51,.92,.16,.67-.25,1.35-.92,1.51-.06,.02-.13,.03-.19,.03h0c-2.99,.62-5.86,1.73-8.48,3.29-5.57,3.12-9.5,8.5-10.78,14.75-1.7,8.22,.98,16.73,7.09,22.48,4.95,4.5,10.86,7.8,17.28,9.65,.65,.2,1.02,.89,.82,1.55,0,0,0,0,0,.01-.16,.52-.63,.88-1.17,.9Z" fill="#002346"></path>
  <path d="M508.17,240.27c-.16,0-.31-.03-.46-.09-6.87-2.64-12.26-8.14-14.77-15.07-1.17-3.13-1.77-6.45-1.77-9.8-.39-10.1,3.85-18.8,12.27-25.17,3.89-2.93,8.26-5.16,12.92-6.59,.66-.18,1.35,.21,1.53,.87s-.21,1.35-.88,1.53c-4.37,1.37-8.47,3.48-12.13,6.23-7.82,5.94-11.59,13.71-11.22,23.08v.1c.01,3.07,.57,6.12,1.65,9,2.27,6.23,7.15,11.16,13.37,13.48,.64,.26,.95,.99,.69,1.63-.19,.48-.65,.79-1.16,.78l-.04,.02Z" fill="#002346"></path>
  <path d="M564.04,358.97c-.15,0-.31-.02-.45-.08-7.12-2.88-13.24-7.76-17.64-14.05-4.2-5.93-7.44-12.49-9.6-19.43-2.61-7.99-4.25-16.27-4.9-24.65h0c-1.14-47.45,8.76-99.46,13.07-119.63,1.88-8.64,2.83-17.45,2.83-26.29-.06-16.28-3.48-24.19-6.34-28-3-3.93-5.88-4.2-6-4.21-.11,0-.22-.02-.33-.06-4.08-1.5-8.59-1.23-12.46,.75-12.62,6.27-19.65,27.54-19.72,27.76-.22,.65-.92,1-1.57,.8-.65-.21-1.01-.91-.8-1.56,0,0,0,0,0-.01,.29-.92,7.42-22.48,21-29.22,4.42-2.26,9.58-2.6,14.26-.93,1.83,.22,14.37,2.9,14.48,34.63,0,9-.97,17.98-2.88,26.78-4.29,20.07-14.15,71.84-13,119,.66,8.16,2.27,16.21,4.8,24,3.77,11.46,11.3,26.3,25.75,31.92,.64,.25,.96,.97,.72,1.61-.17,.53-.67,.88-1.22,.87Z" fill="#002346"></path>
  <path d="M564.49,527.39h-.08c-13.26-.84-23.38-6-30.08-15.46-7.65-10.74-10.83-26.83-9.45-47.81,1.07-13.81,3.47-27.49,7.19-40.83,.81-2.93,1.8-5.9,3-9.08,10.88-28.79,20.05-58.21,27.45-88.09,.12-.68,.77-1.13,1.45-1.02s1.13,.77,1.02,1.45c0,.05-.02,.09-.03,.14-7.43,29.99-16.63,59.5-27.55,88.4-1.18,3.11-2.14,6-2.93,8.87-3.67,13.18-6.05,26.68-7.11,40.32-1.34,20.4,1.68,35.94,9,46.21,6.24,8.77,15.73,13.62,28.21,14.41,.69,.08,1.18,.7,1.1,1.39-.07,.61-.57,1.07-1.18,1.1h0Z" fill="#002346"></path>
  <path d="M563.68,499.34c-3.36-.04-6.7-.37-10-1-28.34-5.17-47.85-31.9-44.43-60.86,2-17,8.44-35.14,19.11-54,.9-1.85,33.07-68.23,34.91-96.51,.04-.68,.62-1.21,1.31-1.17,0,0,0,0,.01,0,.69,.05,1.21,.64,1.17,1.33-.8,12.21-7,32.34-18.33,59.82-8.44,20.41-16.76,37.49-16.84,37.66,0,.02,0,.05,0,.07-10.58,18.6-16.91,36.45-18.91,53.16-3.27,27.65,15.35,53.18,42.4,58.11,3.4,.66,6.86,.97,10.33,.94,.69-.08,1.31,.4,1.39,1.09,.08,.69-.4,1.31-1.09,1.39-.06,0-.13,.01-.19,0l-.84-.04Z" fill="#002346"></path>
  <path d="M564.49,251.12c-.29,0-.58-.09-.81-.28-8.93-7.94-13.45-23.75-13.45-47,.05-10.84,.93-21.66,2.62-32.36,4.29-25.71,2.67-39.49,.56-46.52-2.24-7.49-5.47-9-5.51-9-.09-.04-.18-.09-.26-.15-1.36-1.14-3.21-1.51-4.91-1-6.94,2.05-13.88,17.11-16,22.74-.21,.66-.91,1.03-1.57,.82-.66-.21-1.03-.91-.82-1.57,.01-.04,.03-.08,.05-.12,.32-.87,8-21.45,17.6-24.26,2.41-.72,5.02-.23,7,1.33,.87,.42,4.22,2.48,6.59,9.95,3.37,10.57,3.26,26.8-.31,48.24-.11,.6-10.08,59.18,10,77.05,.51,.46,.56,1.25,.1,1.76-.23,.24-.55,.37-.88,.37Z" fill="#002346"></path>
  <g>
    <rect x="564.49" y="110.04" width="78.72" height="462.81" fill="#fff"></rect>
    <path d="M643.71,573.35h-79.72V109.54h79.72v463.81Zm-78.72-1h77.72V110.54h-77.72v461.81Z" fill="#002346"></path>
  </g>
  <g>
    <path d="M564.49,128.06h46.64c2,0,3.63,1.63,3.63,3.63h0v.33c0,2-1.63,3.63-3.63,3.63h-46.64v-7.59h0Z" fill="#d1d3d4"></path>
    <path d="M611.13,136.15h-47.14v-8.59h47.14c2.28,0,4.13,1.85,4.13,4.13v.33c0,2.28-1.85,4.13-4.13,4.13Zm-46.14-1h46.14c1.73,0,3.13-1.4,3.13-3.13v-.33c0-1.73-1.4-3.13-3.13-3.13h-46.14v6.59Z" fill="#002346"></path>
  </g>
  <g>
    <path d="M564.49,148.92h46.64c2,0,3.63,1.63,3.63,3.63h0v.29c0,2-1.63,3.63-3.63,3.63h-46.64v-7.55Z" fill="#d1d3d4"></path>
    <path d="M611.13,156.97h-47.14v-8.09h.5v-.46h46.64c2.28,0,4.13,1.85,4.13,4.13v.29c0,2.28-1.85,4.13-4.13,4.13Zm-46.14-1h46.14c1.73,0,3.13-1.4,3.13-3.13v-.29c0-1.73-1.4-3.13-3.13-3.13h-46.14v6.55Z" fill="#002346"></path>
  </g>
  <g>
    <path d="M564.49,169.79h46.64c2,0,3.63,1.63,3.63,3.63h0v.33c0,2-1.63,3.63-3.63,3.63h-46.64v-7.59h0Z" fill="#d1d3d4"></path>
    <path d="M611.13,177.88h-47.14v-8.59h47.14c2.28,0,4.13,1.85,4.13,4.13v.33c0,2.28-1.85,4.13-4.13,4.13Zm-46.14-1h46.14c1.73,0,3.13-1.4,3.13-3.13v-.33c0-1.73-1.4-3.13-3.13-3.13h-46.14v6.59Z" fill="#002346"></path>
  </g>
  <g>
    <path d="M564.49,190.65h46.64c2,0,3.63,1.63,3.63,3.63h0v.33c0,2-1.63,3.63-3.63,3.63h-46.64v-7.59h0Z" fill="#d1d3d4"></path>
    <path d="M611.13,198.74h-47.14v-8.59h47.14c2.28,0,4.13,1.85,4.13,4.13v.33c0,2.28-1.85,4.13-4.13,4.13Zm-46.14-1h46.14c1.73,0,3.13-1.4,3.13-3.13v-.33c0-1.73-1.4-3.13-3.13-3.13h-46.14v6.59Z" fill="#002346"></path>
  </g>
  <g>
    <path d="M564.49,210.57h46.64c2,0,3.63,1.63,3.63,3.63h0v.33c0,2-1.63,3.63-3.63,3.63h-46.64v-7.59h0Z" fill="#d1d3d4"></path>
    <path d="M611.13,218.66h-47.14v-8.59h47.14c2.28,0,4.13,1.85,4.13,4.13v.33c0,2.28-1.85,4.13-4.13,4.13Zm-46.14-1h46.14c1.73,0,3.13-1.4,3.13-3.13v-.33c0-1.73-1.4-3.13-3.13-3.13h-46.14v6.59Z" fill="#002346"></path>
  </g>
  <g>
    <path d="M564.49,231.43h46.64c2,0,3.63,1.63,3.63,3.63h0v.33c0,2-1.63,3.63-3.63,3.63h-46.64v-7.59h0Z" fill="#d1d3d4"></path>
    <path d="M611.13,239.52h-47.14v-8.59h47.14c2.28,0,4.13,1.85,4.13,4.13v.33c0,2.28-1.85,4.13-4.13,4.13Zm-46.14-1h46.14c1.73,0,3.13-1.4,3.13-3.13v-.33c0-1.73-1.4-3.13-3.13-3.13h-46.14v6.59Z" fill="#002346"></path>
  </g>
  <g>
    <path d="M564.49,252.3h46.64c2,0,3.63,1.63,3.63,3.63h0v.33c0,2-1.63,3.63-3.63,3.63h-46.64v-7.59h0Z" fill="#d1d3d4"></path>
    <path d="M611.13,260.39h-47.14v-8.59h47.14c2.28,0,4.13,1.85,4.13,4.13v.33c0,2.28-1.85,4.13-4.13,4.13Zm-46.14-1h46.14c1.73,0,3.13-1.4,3.13-3.13v-.33c0-1.73-1.4-3.13-3.13-3.13h-46.14v6.59Z" fill="#002346"></path>
  </g>
  <g>
    <path d="M564.49,273.16h46.64c2,0,3.63,1.63,3.63,3.63h0v.33c0,2-1.63,3.63-3.63,3.63h-46.64v-7.59h0Z" fill="#d1d3d4"></path>
    <path d="M611.13,281.25h-47.14v-8.59h47.14c2.28,0,4.13,1.85,4.13,4.13v.33c0,2.28-1.85,4.13-4.13,4.13Zm-46.14-1h46.14c1.73,0,3.13-1.4,3.13-3.13v-.33c0-1.73-1.4-3.13-3.13-3.13h-46.14v6.59Z" fill="#002346"></path>
  </g>
  <g>
    <path d="M564.49,294.03h46.64c2,0,3.63,1.63,3.63,3.63h0v.33c0,2-1.63,3.63-3.63,3.63h-46.64v-7.59h0Z" fill="#d1d3d4"></path>
    <path d="M611.13,302.12h-47.14v-8.59h47.14c2.28,0,4.13,1.85,4.13,4.13v.33c0,2.28-1.85,4.13-4.13,4.13Zm-46.14-1h46.14c1.73,0,3.13-1.4,3.13-3.13v-.33c0-1.73-1.4-3.13-3.13-3.13h-46.14v6.59Z" fill="#002346"></path>
  </g>
  <g>
    <path d="M564.49,314.89h46.64c2,0,3.63,1.63,3.63,3.63h0v.32c0,2-1.63,3.63-3.63,3.63h-46.64v-7.59h0Z" fill="#d1d3d4"></path>
    <path d="M611.13,322.97h-47.14v-8.09h.5v-.49h46.64c2.28,0,4.13,1.85,4.13,4.13v.32c0,2.28-1.85,4.13-4.13,4.13Zm-46.14-1h46.14c1.73,0,3.13-1.4,3.13-3.13v-.32c0-1.73-1.4-3.13-3.13-3.13h-46.14v6.58Z" fill="#002346"></path>
  </g>
  <g>
    <path d="M564.49,335.76h46.64c2,0,3.63,1.63,3.63,3.63h0v.33c0,2-1.63,3.63-3.63,3.63h-46.64v-7.59h0Z" fill="#d1d3d4"></path>
    <path d="M611.13,343.85h-47.14v-8.59h47.14c2.28,0,4.13,1.85,4.13,4.13v.33c0,2.28-1.85,4.13-4.13,4.13Zm-46.14-1h46.14c1.73,0,3.13-1.4,3.13-3.13v-.33c0-1.73-1.4-3.13-3.13-3.13h-46.14v6.59Z" fill="#002346"></path>
  </g>
  <g>
    <path d="M564.49,355.67h46.64c2,0,3.63,1.63,3.63,3.63h0v.33c0,2-1.63,3.63-3.63,3.63h-46.64v-7.59h0Z" fill="#d1d3d4"></path>
    <path d="M611.13,363.76h-47.14v-8.59h47.14c2.28,0,4.13,1.85,4.13,4.13v.33c0,2.28-1.85,4.13-4.13,4.13Zm-46.14-1h46.14c1.73,0,3.13-1.4,3.13-3.13v-.33c0-1.73-1.4-3.13-3.13-3.13h-46.14v6.59Z" fill="#002346"></path>
  </g>
  <g>
    <path d="M564.49,376.54h46.64c2,0,3.63,1.63,3.63,3.63h0v.33c0,2-1.63,3.63-3.63,3.63h-46.64v-7.59h0Z" fill="#d1d3d4"></path>
    <path d="M611.13,384.63h-47.14v-8.59h47.14c2.28,0,4.13,1.85,4.13,4.13v.33c0,2.28-1.85,4.13-4.13,4.13Zm-46.14-1h46.14c1.73,0,3.13-1.4,3.13-3.13v-.33c0-1.73-1.4-3.13-3.13-3.13h-46.14v6.59Z" fill="#002346"></path>
  </g>
  <g>
    <path d="M564.49,397.4h46.64c2,0,3.63,1.63,3.63,3.63h0v.33c0,2-1.63,3.63-3.63,3.63h-46.64v-7.59h0Z" fill="#d1d3d4"></path>
    <path d="M611.13,405.49h-47.14v-8.59h47.14c2.28,0,4.13,1.85,4.13,4.13v.33c0,2.28-1.85,4.13-4.13,4.13Zm-46.14-1h46.14c1.73,0,3.13-1.4,3.13-3.13v-.33c0-1.73-1.4-3.13-3.13-3.13h-46.14v6.59Z" fill="#002346"></path>
  </g>
  <g>
    <path d="M564.49,418.27h46.64c2,0,3.63,1.63,3.63,3.63h0v.33c0,2-1.63,3.63-3.63,3.63h-46.64v-7.59h0Z" fill="#d1d3d4"></path>
    <path d="M611.13,426.36h-47.14v-8.59h47.14c2.28,0,4.13,1.85,4.13,4.13v.33c0,2.28-1.85,4.13-4.13,4.13Zm-46.14-1h46.14c1.73,0,3.13-1.4,3.13-3.13v-.33c0-1.73-1.4-3.13-3.13-3.13h-46.14v6.59Z" fill="#002346"></path>
  </g>
  <g>
    <path d="M564.49,439.13h46.64c2,0,3.63,1.63,3.63,3.63v.33c0,2-1.63,3.63-3.63,3.63h-46.64v-7.59h0Z" fill="#d1d3d4"></path>
    <path d="M611.13,447.22h-47.14v-8.59h47.14c2.28,0,4.13,1.85,4.13,4.13v.33c0,2.28-1.85,4.13-4.13,4.13Zm-46.14-1h46.14c1.73,0,3.13-1.4,3.13-3.13v-.33c0-1.73-1.4-3.13-3.13-3.13h-46.14v6.59Z" fill="#002346"></path>
  </g>
  <g>
    <path d="M564.49,459.99h46.64c2,0,3.63,1.63,3.63,3.63h0v.33c0,2-1.63,3.63-3.63,3.63h-46.64v-7.59h0Z" fill="#d1d3d4"></path>
    <path d="M611.13,468.08h-47.14v-8.59h47.14c2.28,0,4.13,1.85,4.13,4.13v.33c0,2.28-1.85,4.13-4.13,4.13Zm-46.14-1h46.14c1.73,0,3.13-1.4,3.13-3.13v-.33c0-1.73-1.4-3.13-3.13-3.13h-46.14v6.59Z" fill="#002346"></path>
  </g>
  <g>
    <path d="M564.49,480.84h46.64c2,0,3.63,1.63,3.63,3.63h0v.37c0,2-1.63,3.63-3.63,3.63h-46.64v-7.63h0Z" fill="#d1d3d4"></path>
    <path d="M611.13,488.97h-47.14v-8.63h47.14c2.28,0,4.13,1.85,4.13,4.13v.37c0,2.28-1.85,4.13-4.13,4.13Zm-46.14-1h46.14c1.73,0,3.13-1.4,3.13-3.13v-.37c0-1.73-1.4-3.13-3.13-3.13h-46.14v6.63Z" fill="#002346"></path>
  </g>
  <g>
    <path d="M564.49,499.84h46.64c2,0,3.63,1.63,3.63,3.63h0v.33c0,2-1.63,3.63-3.63,3.63h-46.64v-7.59h0Z" fill="#d1d3d4"></path>
    <path d="M611.13,507.93h-47.14v-8.59h47.14c2.28,0,4.13,1.85,4.13,4.13v.33c0,2.28-1.85,4.13-4.13,4.13Zm-46.14-1h46.14c1.73,0,3.13-1.4,3.13-3.13v-.33c0-1.73-1.4-3.13-3.13-3.13h-46.14v6.59Z" fill="#002346"></path>
  </g>
  <path d="M524.29,162.95h-13.86c-.15-.03-.25-.18-.22-.33,.02-.11,.11-.2,.22-.22h13.86c.15,.03,.25,.18,.22,.33-.02,.11-.11,.2-.22,.22Z" fill="#002346"></path>
  <g>
    <path d="M489.9,159.36h20.54v6.64h-20.54c-1.75,.03-3.19-1.37-3.22-3.12,0-.01,0-.03,0-.04v-.29c-.01-1.75,1.4-3.18,3.15-3.19,.02,0,.05,0,.07,0Z" fill="#322c6d"></path>
    <path d="M489.84,166.5c-.95,0-1.86-.37-2.55-1.03-.7-.68-1.1-1.6-1.12-2.58v-.34c0-.98,.37-1.9,1.06-2.6s1.61-1.08,2.59-1.09h21.11v7.64h-21.1Zm-.01-6.64c-.71,0-1.38,.29-1.88,.79-.5,.51-.77,1.18-.77,1.89v.29c.02,1.49,1.22,2.66,2.67,2.66h20.09v-5.64h-20.11Z" fill="#002346"></path>
  </g>
  <g>
    <path d="M467.75,146.08l14.75-2.46c1.52-.25,3.08-.05,4.48,.59l21.87,9.93c1.04,.45,1.53,1.66,1.08,2.71-.08,.19-.19,.36-.32,.51-.54,.59-1.45,.86-3,.1l-23.73-11.38h-15.13Z" fill="#f2b3c1"></path>
    <path d="M508.28,158.43c-.52,0-1.14-.14-1.9-.51l-23.62-11.33h-15.01l-.08-1,14.75-2.46c1.63-.27,3.28-.05,4.77,.63l21.87,9.93c.62,.27,1.11,.77,1.36,1.4,.25,.64,.24,1.33-.03,1.96-.1,.23-.23,.44-.39,.64-.36,.39-.9,.74-1.71,.74Zm-34.44-12.85l9.25,.05,23.73,11.38c1.67,.82,2.23,.21,2.41,.01,.09-.1,.17-.23,.23-.37,.16-.38,.17-.8,.02-1.19-.15-.39-.45-.69-.83-.85l-21.88-9.93c-1.32-.6-2.76-.79-4.19-.55l-8.74,1.46Z" fill="#002346"></path>
  </g>
  <g>
    <path d="M499.05,173.58s-11.38,2.85-13.27,8.54c0,0-1,5.69-12.33,8.53l-15.18,4.74-32.28,46.85h0l-16.07,23.31s-5.81,9.31-14.76,13.2c0,0-2.54-20.35-19.5-31.47,0,0,3-11.13,19.09-24.4l47.42-42.68,9.51-26.54s0-7.58,10.44-7.58h20.76l23.8,11.38s.95,8.53-15.17,2.84c0,0-10.44-2.84-14.23,0,0,0-12.33,3.8-9.48,5.69,0,0,3.79,6.64,10.43,3.8,0,0,19.91-7.59,26.55-4.74-.04,0,4.71,3.79-5.73,8.53Z" fill="#f2b3c1"></path>
    <path d="M394.74,279.48l-.08-.67c-.03-.2-2.72-20.25-19.28-31.11l-.31-.2,.1-.35c.12-.46,3.23-11.44,19.26-24.66l47.31-42.58,9.44-26.35c.05-.92,.78-7.99,10.94-7.99h20.87l.1,.05,24.05,11.5,.03,.28c.01,.1,.25,2.44-1.74,4.01-2.51,1.99-7.25,1.78-14.1-.64-.07-.02-10.21-2.73-13.76-.07l-.15,.08c-4.48,1.38-9.4,3.51-9.55,4.55-.01,.08,.1,.18,.2,.24l.1,.07,.06,.1c.15,.25,3.65,6.21,9.79,3.59,.84-.32,20.2-7.64,26.95-4.74l.46,.2-.06,.16c.48,.54,1.14,1.56,.91,2.94-.36,2.14-2.73,4.21-7.02,6.16l-.09,.03c-.11,.03-11.13,2.85-12.91,8.21-.03,.17-1.17,5.97-12.69,8.86l-14.99,4.68-48.25,70.02c-.23,.37-5.98,9.47-14.97,13.38l-.62,.27Zm-18.49-32.41c14.96,10.01,18.67,27.34,19.3,30.95,8.37-3.93,13.88-12.65,13.94-12.74l48.46-70.32,.17-.05,15.18-4.74c10.84-2.72,11.97-8.08,11.98-8.14,1.93-5.83,12.69-8.7,13.6-8.93,4.92-2.24,6.2-4.17,6.4-5.39,.18-1.07-.4-1.85-.79-2.23-6.47-2.63-25.89,4.71-26.08,4.78-6.49,2.78-10.45-3.07-10.99-3.92-.55-.42-.58-.9-.54-1.16,.31-2.12,7.75-4.59,10.17-5.34,4-2.87,14.16-.15,14.59-.03,8.12,2.86,11.63,2.03,13.16,.82,1.22-.96,1.38-2.29,1.38-2.85l-23.42-11.2h-20.65c-9.82,0-9.93,6.79-9.93,7.08l-.03,.17-9.55,26.66-.09,.08-47.42,42.68c-14.21,11.72-18.17,21.85-18.83,23.81Z" fill="#002346"></path>
  </g>
  <g>
    <path d="M346.35,542.38h-4.97l96.03-99.46,75.59-13.99c.47-.09,.82,.43,.57,.84l-1.1,1.78-74.11,14.23-92.01,96.61Z" fill="#fff"></path>
    <path d="M346.56,542.88h-6.36l96.96-100.42,.16-.03,75.59-13.99c.41-.08,.82,.09,1.06,.44,.24,.35,.25,.79,.03,1.15l-1.22,1.96-.21,.04-73.95,14.2-92.05,96.65Zm-4.01-1h3.58l91.97-96.57,74.05-14.22,.99-1.59-75.49,13.88-95.1,98.5Z" fill="#002346"></path>
  </g>
  <g>
    <path d="M420.34,533.02l92.01-101.35s0-.11-.06-.1l-73.93,14.2-92.01,96.61,73.99-9.36Z" fill="#11546e"></path>
    <path d="M345.02,543.05l93.09-97.74,74.44-14.29,.24,.35c.12,.21,.09,.47-.07,.65l-92.13,101.48-.18,.02-75.38,9.54Zm93.59-96.82l-90.93,95.48,72.41-9.16,91-100.23-72.48,13.92Z" fill="#002346"></path>
  </g>
  <g>
    <path d="M238.25,553.89l113.8-19.92,39.63,1.76c1.99,.09,3.96-.37,5.7-1.33l24.84-13.71s4.75-2.84,3.8-9.48c0,0,7.58-2.85,2.84-11.38l2.93-1.68c2.08-1.19,2.87-3.8,1.8-5.94h0c-1.06-2.12-3.58-3.06-5.77-2.14l-18.87,7.86-24.65,1.91s-4.74,0-1.9-4.75l5.92-5.91c.47-.46,1.09-.74,1.74-.78l3.38-.18,8-8s-19.99-7.89-34.21,5.39l-17.14,16.23c-1.18,1.14-2.72,1.85-4.35,2l-55.57,5.13c-3,.28-6,.42-9,.42h-6.85s-26.59,10.35-36.07,44.5Z" fill="#f2b3c1"></path>
    <path d="M237.55,554.52l.21-.77c9.44-34,36.11-44.73,36.37-44.84l.18-.03h6.85c2.97,0,5.99-.14,8.95-.42l55.57-5.13c1.51-.14,2.95-.8,4.05-1.86l17.14-16.23c14.29-13.35,34.54-5.57,34.74-5.49l.72,.28-8.68,8.68-3.57,.19c-.53,.03-1.03,.25-1.41,.63l-5.87,5.86c-.78,1.31-.99,2.35-.63,2.99,.52,.92,2.12,.94,2.13,.94l24.53-1.9,18.79-7.83c2.42-1.02,5.24,.03,6.42,2.38,1.19,2.38,.31,5.28-2,6.6l-2.5,1.44c1.43,2.75,1.76,5.22,.98,7.34-.91,2.49-3.07,3.74-3.94,4.15,.75,6.62-4.04,9.57-4.09,9.6l-24.85,13.72c-1.82,1.01-3.89,1.5-5.97,1.39l-39.57-1.76-114.53,20.05Zm36.87-44.63c-1.64,.68-26.25,11.42-35.46,43.36l113.06-19.79h.05s39.63,1.76,39.63,1.76c1.9,.09,3.77-.35,5.43-1.27l24.84-13.71c.17-.1,4.43-2.76,3.54-8.97l-.06-.4,.38-.14s2.76-1.08,3.73-3.73c.71-1.95,.32-4.28-1.15-6.93l-.24-.44,3.36-1.93c1.85-1.06,2.55-3.37,1.6-5.28-.94-1.88-3.19-2.71-5.12-1.9l-19.03,7.9-24.65,1.91c-.15,0-2.23-.01-3.05-1.45-.57-1-.34-2.37,.67-4.06l.08-.1,5.92-5.91c.55-.55,1.29-.88,2.07-.92l3.19-.17,7.3-7.3c-3.71-1.23-20.64-5.94-32.94,5.54l-17.14,16.23c-1.25,1.21-2.91,1.97-4.65,2.14l-55.57,5.13c-3,.28-6.04,.42-9.05,.42h-6.75Z" fill="#002346"></path>
  </g>
  <path d="M410.38,507.77c-.2,0-.39-.12-.46-.31-.1-.26,.02-.55,.28-.65l18.49-7.44c.26-.1,.55,.02,.65,.28,.1,.26-.02,.55-.28,.65l-18.49,7.44c-.06,.02-.12,.04-.19,.04Z" fill="#002346"></path>
  <path d="M413.66,516.32c-.2,0-.39-.12-.47-.32-.1-.26,.03-.55,.29-.64l12.09-4.61c.26-.1,.55,.03,.64,.29,.1,.26-.03,.55-.29,.64l-12.09,4.61c-.06,.02-.12,.03-.18,.03Z" fill="#002346"></path>
  <path d="M274.32,509.89s-.04,0-.07,0l-43.87-5.75c-.25-.03-.43-.24-.43-.49-.25-59.81-17.13-90.8-31.24-106.28-15.24-16.71-30.57-19.36-30.72-19.39-.27-.04-.46-.3-.41-.57,.04-.27,.3-.46,.57-.41,.16,.03,15.82,2.74,31.3,19.7,14.2,15.56,31.17,46.67,31.5,106.51l43.44,5.7c.27,.04,.47,.29,.43,.56-.03,.25-.25,.43-.5,.43Z" fill="#002346"></path>
  <path d="M342.62,348.37c-.14,0-.28-.06-.38-.18l-16.18-19.21c-.18-.21-.15-.53,.06-.71,.21-.17,.53-.15,.71,.06l16.18,19.21c.18,.21,.15,.53-.06,.71-.09,.08-.21,.12-.32,.12Z" fill="#002346"></path>
  <path d="M385.58,292.45c-.22,0-.42-.15-.48-.37-.02-.09-2.54-9.2-14.38-19.97-.21-.19-.22-.5-.03-.71,.19-.2,.5-.22,.71-.03,12.08,10.99,14.58,20.07,14.68,20.45,.07,.27-.09,.54-.36,.61-.04,.01-.09,.02-.13,.02Z" fill="#002346"></path>
  <path d="M63.15,311.22c-.18,0-.36-.1-.45-.27-.13-.25-.03-.55,.22-.67l54.04-27.48c.24-.12,.55-.03,.67,.22,.13,.25,.03,.55-.22,.67l-54.04,27.48c-.07,.04-.15,.05-.23,.05Z" fill="#002346"></path>
  <path d="M66.15,318.22c-.18,0-.36-.1-.45-.27-.13-.25-.03-.55,.22-.67l54.04-27.48c.25-.12,.55-.03,.67,.22,.13,.25,.03,.55-.22,.67l-54.04,27.48c-.07,.04-.15,.05-.23,.05Z" fill="#002346"></path>
  <path d="M70.15,325.22c-.18,0-.36-.1-.45-.27-.13-.25-.03-.55,.22-.67l54.04-27.48c.25-.12,.55-.03,.67,.22,.13,.25,.03,.55-.22,.67l-54.04,27.48c-.07,.04-.15,.05-.23,.05Z" fill="#002346"></path>
  <path d="M73.15,332.22c-.18,0-.36-.1-.45-.27-.13-.25-.03-.55,.22-.67l54.04-27.48c.25-.12,.55-.03,.67,.22,.13,.25,.03,.55-.22,.67l-54.04,27.48c-.07,.04-.15,.05-.23,.05Z" fill="#002346"></path>
  <path d="M517.92,554.39H45.98c-.28,0-.5-.22-.5-.5s.22-.5,.5-.5h471.94c.28,0,.5,.22,.5,.5s-.22,.5-.5,.5Z" fill="#002346"></path>
  <path d="M847.86,554.39h-204.65c-.28,0-.5-.22-.5-.5s.22-.5,.5-.5h204.65c.28,0,.5,.22,.5,.5s-.22,.5-.5,.5Z" fill="#002346"></path>
  <path d="M51.11,364.07c-.18,0-.36-.1-.44-.27-.13-.25-.03-.55,.21-.67l55.01-28.45c.24-.13,.55-.03,.67,.21,.13,.25,.03,.55-.21,.67l-55.01,28.45c-.07,.04-.15,.06-.23,.06Z" fill="#002346"></path>
  <path d="M56.11,372.07c-.18,0-.36-.1-.44-.27-.13-.25-.03-.55,.21-.67l55.01-28.45c.24-.13,.55-.03,.67,.21,.13,.25,.03,.55-.21,.67l-55.01,28.45c-.07,.04-.15,.06-.23,.06Z" fill="#002346"></path>
  <path d="M60.11,380.07c-.18,0-.36-.1-.44-.27-.13-.25-.03-.55,.21-.67l55.01-28.45c.24-.13,.55-.03,.67,.21,.13,.25,.03,.55-.21,.67l-55.01,28.45c-.07,.04-.15,.06-.23,.06Z" fill="#002346"></path>
  <path d="M64.11,389.07c-.18,0-.36-.1-.44-.27-.13-.25-.03-.55,.21-.67l55.01-28.45c.24-.12,.55-.03,.67,.21,.13,.25,.03,.55-.21,.67l-55.01,28.45c-.07,.04-.15,.06-.23,.06Z" fill="#002346"></path>
  <path d="M69.11,396.07c-.18,0-.36-.1-.44-.27-.13-.25-.03-.55,.21-.67l55.01-28.45c.24-.13,.55-.03,.67,.21,.13,.25,.03,.55-.21,.67l-55.01,28.45c-.07,.04-.15,.06-.23,.06Z" fill="#002346"></path>
  <path d="M73.11,405.07c-.18,0-.36-.1-.44-.27-.13-.25-.03-.55,.21-.67l55.01-28.45c.24-.13,.55-.03,.67,.21,.13,.25,.03,.55-.21,.67l-55.01,28.45c-.07,.04-.15,.06-.23,.06Z" fill="#002346"></path>
  <path d="M79.11,412.07c-.18,0-.36-.1-.44-.27-.13-.25-.03-.55,.21-.67l55.01-28.45c.24-.13,.55-.03,.67,.21,.13,.25,.03,.55-.21,.67l-55.01,28.45c-.07,.04-.15,.06-.23,.06Z" fill="#002346"></path>
</svg>
