<?xml version="1.0" encoding="UTF-8"?>
<svg xmlns="http://www.w3.org/2000/svg" id="a" width="865.76" height="682.89" viewBox="0 0 865.76 682.89">
  <rect x="440.84" y="47.83" width="305" height="268" fill="#fff" stroke="#002346" stroke-miterlimit="10"></rect>
  <rect x="440.84" y="47.83" width="305" height="25.5" fill="#112D4E" stroke="#002346" stroke-miterlimit="10"></rect>
  <rect x="440.84" y="162.33" width="305.5" height="51.17" fill="#e6e7e8" stroke="#002346" stroke-miterlimit="10"></rect>
  <rect x="440.84" y="213.49" width="305.5" height="51.17" fill="#fff" stroke="#002346" stroke-miterlimit="10"></rect>
  <rect x="441.34" y="264.08" width="305" height="52.25" fill="#fff" stroke="#002346" stroke-miterlimit="10"></rect>
  <g>
    <line x1="465.34" y1="180.41" x2="621.74" y2="180.41" fill="none" stroke="#002346" stroke-linecap="round" stroke-linejoin="round"></line>
    <line x1="465.34" y1="195.41" x2="594.74" y2="195.41" fill="none" stroke="#002346" stroke-linecap="round" stroke-linejoin="round"></line>
  </g>
  <rect x="667.34" y="179.41" width="60" height="17" rx="8.5" ry="8.5" fill="#112D4E" stroke="#002346" stroke-miterlimit="10"></rect>
  <g>
    <line x1="465.34" y1="231.58" x2="621.74" y2="231.58" fill="none" stroke="#002346" stroke-linecap="round" stroke-linejoin="round"></line>
    <line x1="465.34" y1="246.58" x2="594.74" y2="246.58" fill="none" stroke="#002346" stroke-linecap="round" stroke-linejoin="round"></line>
  </g>
  <g>
    <line x1="465.34" y1="281.58" x2="621.74" y2="281.58" fill="none" stroke="#002346" stroke-linecap="round" stroke-linejoin="round"></line>
    <line x1="465.34" y1="296.58" x2="594.74" y2="296.58" fill="none" stroke="#002346" stroke-linecap="round" stroke-linejoin="round"></line>
  </g>
  <rect x="667.34" y="230.58" width="60" height="17" rx="8.5" ry="8.5" fill="#112D4E" stroke="#002346" stroke-miterlimit="10"></rect>
  <rect x="667.34" y="281.16" width="60" height="17" rx="8.5" ry="8.5" fill="#112D4E" stroke="#002346" stroke-miterlimit="10"></rect>
  <rect x="628.34" y="103.33" width="85" height="26" rx="13" ry="13" fill="#3F72AF" stroke="#002346" stroke-miterlimit="10"></rect>
  <g>
    <g>
      <g>
        <polygon points="255.41 554.33 184.96 609.81 199.57 609.81 258.03 568.07 255.41 554.33" fill="#e6e7e8" stroke="#002346" stroke-miterlimit="10"></polygon>
        <polygon points="261.82 553.01 261.9 567.42 315.6 609.81 329.99 609.81 261.82 553.01" fill="#e6e7e8" stroke="#002346" stroke-miterlimit="10"></polygon>
      </g>
      <rect x="251.97" y="498.85" width="12.12" height="110.97" fill="#fff" stroke="#002346" stroke-miterlimit="10"></rect>
      <path d="M204.63,482.56h107.94v3.62c0,9.08-7.37,16.46-16.46,16.46h-75.03c-9.08,0-16.46-7.37-16.46-16.46v-3.62h0Z" fill="#fff" stroke="#002346" stroke-miterlimit="10"></path>
      <polygon points="316.06 344.7 393.33 344.7 368.64 432.47 328.56 466.91 316.06 344.7" fill="#e6e7e8" stroke="#002346" stroke-miterlimit="10"></polygon>
      <path d="M122.8,299.6l10.07,46.62,89.91,82.95,125.65,20.21,19.24-26.46-39.01-70.06-35.96-64.84c-2.38-4.15-6.83-6.67-11.61-6.6l-145.64,2.26c-8.3,.13-14.4,7.82-12.65,15.93Z" fill="#fff" stroke="#002346" stroke-miterlimit="10"></path>
      <path d="M178.69,341.87l-43.55,1.51c-15.91,.38-14.15,9.43-12.51,16.31l27.14,114.1c2.42,9.37,10.94,15.86,20.61,15.7l67.52-1.12-59.2-146.5Z" fill="#e6e7e8" stroke="#002346" stroke-miterlimit="10"></path>
      <path d="M339.08,282.6s-2.45,4.55-15.09,6.92c.9-4.68,1.08-10.15-.34-16.1-.23-.98-.56-1.94-.93-2.87-.39-.97-.95-2.54-1.4-4.43-.95-3.93-.72-8.03,.47-11.89,.77-2.49,1.45-6.72-.69-10.87,.27,.36,17.24,23.47,17.99,39.25Z" fill="#3F72AF" stroke="#002346" stroke-miterlimit="10"></path>
      <path d="M193.72,350.82l15.37,48.3c2.56,8.05,7.17,15.34,13.56,20.87,7.99,6.9,20.36,12.95,37.91,9.54h78.82c9.09,0,17.59-4.63,22.39-12.35,4.07-6.55,8.5-16.11,11.7-29.62l9.95-37.62c1.33-5.01,5.86-8.51,11.05-8.51h0c7.22,0,12.64,6.62,11.2,13.7l-18.5,91.46s-6.61,40.58-57.27,42.07h-87.97s-43.36,.35-54.72-48.5l-18.66-82.49c-1.61-7.12,2.93-14.17,10.07-15.66h0c6.55-1.37,13.07,2.44,15.1,8.82Z" fill="#fff" stroke="#002346" stroke-miterlimit="10"></path>
      <path d="M303.29,357.77l-5.86,24.31,1.32,.31c-12.12,9.09-17.88,22.38-17.88,22.38-6.73,19.66,3.17,26.2,3.17,26.2v4.62c-10.17,1.26-24.54,1.43-40.01-4.15-1.83-.66-3.59-1.37-5.26-2.11-3.94-1.74-7.53-4.22-10.43-7.41-.2-.22-.39-.43-.57-.65-15.04-17.5-2.3-43.23-2.3-43.23l14.63-38.16c7.06,7.28,19.63,9.46,19.63,9.46l43.56,8.44Z" fill="#112D4E" stroke="#002346" stroke-miterlimit="10"></path>
      <path d="M359.96,619.21l-23.91,2.34c-21.21,.38-19.31-20.28-19.31-20.28l-4.17-.36v16.48h-4.17c.38-9.47-4.54-32.95-4.54-32.95-1.86-11.16,5.9-16.66,6.18-16.85-.71,1.57-1.06,3.3-.97,5.05,.71,13.91,9.57,24.3,9.57,24.3,10.23,22.34,32.95,4.92,32.95,4.92,18.56,13.63,8.38,17.35,8.38,17.35Z" fill="#3F72AF" stroke="#002346" stroke-miterlimit="10"></path>
      <path d="M270.52,550.43s-5.88-3.69-7.1,10.99c0,0-3.56,10.39-7.5,16.51,0,0-6.75,12.78-4.64,24.46,1.69,9.33,12.09,14.33,20.26,9.52,6.64-3.91,13.62-13.23,15.53-34.69l-16.55-26.78Z" fill="#3F72AF" stroke="#002346" stroke-miterlimit="10"></path>
      <path d="M323.98,289.52c-1.94,10.09-7.25,16.56-7.25,16.56l2.27,30.3-60.32-1.38v-44.77l-35.49,1.46c-5.3-20.07-1.51-39.01-1.51-39.01,5.3-27.27,37.01-26.46,37.01-26.46l27.75,9.8,15.53-3.41c11.56,2.13,16.89,6.4,19.13,10.74h0c2.14,4.16,1.45,8.38,.69,10.88-1.19,3.86-1.41,7.96-.47,11.89,.45,1.89,1.01,3.46,1.4,4.43,.37,.94,.7,1.89,.93,2.87,1.42,5.96,1.24,11.42,.34,16.1Z" fill="#3F72AF" stroke="#002346" stroke-miterlimit="10"></path>
      <path d="M271.02,219.19v7.03h-12.34l20.84,22.34,22.44-15.96-14.39-3.41,.34-8.77s-8.18-.31-14.11-6.94c0,0-.78,3.65-2.79,5.7Z" fill="#f1b2c0" stroke="#002346" stroke-miterlimit="10"></path>
      <rect x="268.45" y="165.57" width="42.04" height="54.91" rx="21.02" ry="21.02" fill="#f1b2c0" stroke="#002346" stroke-miterlimit="10"></rect>
      <polygon points="319 336.38 328.49 352.88 324.69 354.5 294.76 335.4 319 336.38" fill="#112D4E" stroke="#002346" stroke-miterlimit="10"></polygon>
      <path d="M225.22,291.67s7.06,31.45,11.98,43.57c0,0,3.03,12.12,29.16,15.15l36.74,7.57h39.49s-6.87-9.69-18.47-5.31c-.62,.23-1.31,.16-1.87-.19l-57.02-35.41-6.55-26.83-33.46,1.44Z" fill="#f1b2c0" stroke="#002346" stroke-miterlimit="10"></path>
      <path d="M352.63,382.2h3.33s8.42,13.68,9.18,26.04c.11,1.81-.28,3.62-1.13,5.22-.85,1.58-2.17,3.8-4.05,6.23,0,0-1-18-7.33-37.5Z" fill="#112D4E" stroke="#002346" stroke-miterlimit="10"></path>
      <polygon points="247.43 378.04 213.34 629.13 221.96 629.13 270.51 378.04 247.43 378.04" fill="#e6e7e8" stroke="#002346" stroke-miterlimit="10"></polygon>
      <polygon points="509.11 378.04 543.2 629.13 534.57 629.13 486.02 378.04 509.11 378.04" fill="#e6e7e8" stroke="#002346" stroke-miterlimit="10"></polygon>
      <rect x="211.07" y="367.81" width="334.79" height="14.39" rx="7.2" ry="7.2" fill="#e6e7e8" stroke="#002346" stroke-miterlimit="10"></rect>
      <path d="M340.59,529.9s-10.6,37.11-6.82,46.58c0,0,8.71,19.31,17.8,25.37,0,0-22.72,17.42-32.95-4.92,0,0-8.86-10.39-9.57-24.3-.09-1.75,.26-3.48,.97-5.05h0c.37-.83,.85-1.61,1.42-2.33,2.14-2.73,5.04-7.56,5.28-13.88l3.03-94.95s1.51-17.86-3.03-12.15l-20.83,96.32s-7.44,32.42-8.84,36.61c0,0-27.52,4.54-25.25-3.59,0,0,3.8-17.51,7.65-22.25,.75-.92,1.17-2.06,1.3-3.23,1.77-16.07,12.32-111.78,12.45-116.91,0,0-18.56-20.83,14.2-49.04h55.21s8.83,24.01,7.1,48.93c0,0-7.4,56.36-19.14,98.77Z" fill="#f1b2c0" stroke="#002346" stroke-miterlimit="10"></path>
      <path d="M338.1,283.75l4.49,31.3,61.75-32.67v26.95l-59.34,28.13c-6.22,2.95-13.5,3.08-19.66,0-3.89-1.95-7.13-5.05-7.01-9.92l-1.61-21.46s4.66-5.86,7.25-16.56c0,0,9.73-1.59,14.11-5.77Z" fill="#f1b2c0" stroke="#002346" stroke-miterlimit="10"></path>
      <polygon points="496.14 336.44 352.47 336.94 380.74 234.88 526.14 234.44 496.14 336.44" fill="#fff" stroke="#002346" stroke-miterlimit="10"></polygon>
      <polygon points="378.22 367.81 297.42 367.81 297.42 357.96 378.46 357.96 378.22 367.81" fill="#e6e7e8" stroke="#002346" stroke-miterlimit="10"></polygon>
      <polygon points="496.25 336.75 357.26 336.75 384.52 238.67 524.65 238.67 496.25 336.75" fill="#3F72AF" stroke="#002346" stroke-miterlimit="10"></polygon>
      <path d="M471.58,359.11l-15.17-44.06h-37.65l13.2,40.82c.7,2.16-.91,4.37-3.18,4.37h-35.22c-2.05,0-3.89,1.54-4,3.58-.11,2.18,1.62,3.99,3.78,3.99h72.02c4.51,0,7.67-4.44,6.21-8.7Zm-21.45-13c-.42,.08-.84,.09-1.26,.05-2.42-.26-4.6-2.51-5.18-5.58-.59-3.15,.7-6.12,2.97-7.17,.32-.15,.66-.26,1.01-.33,2.88-.54,5.76,1.94,6.44,5.53,.68,3.6-1.11,6.95-3.98,7.49Z" fill="#3F72AF" stroke="#002346" stroke-miterlimit="10"></path>
      <path d="M450.13,346.11c-.42,.08-.84,.09-1.26,.05,.27,.29,3.65-3.77,2.97-7.17-.7-3.55-2.29-5.29-4.7-5.55,.32-.15,.18-.3,.54-.36,2.88-.54,5.76,1.94,6.44,5.53,.68,3.6-1.11,6.95-3.98,7.49Z" fill="#fff" stroke="#002346" stroke-miterlimit="10"></path>
      <ellipse cx="450.15" cy="282.08" rx="12.02" ry="9.47" transform="translate(37.12 616.15) rotate(-71.04)" fill="none" stroke="#fff" stroke-miterlimit="10"></ellipse>
      <line x1="258.68" y1="290.23" x2="257.31" y2="259.58" fill="none" stroke="#002346" stroke-linecap="round" stroke-linejoin="round"></line>
      <path d="M316.73,306.08c-3.04-.51-6.55-.88-10.44-.9-7.18-.04-13.28,1.1-17.9,2.36" fill="none" stroke="#002346" stroke-linecap="round" stroke-linejoin="round"></path>
      <line x1="318.45" y1="442.33" x2="324.1" y2="403.77" fill="none" stroke="#002346" stroke-linecap="round" stroke-linejoin="round"></line>
      <g>
        <ellipse cx="258.77" cy="159.7" rx="12.26" ry="12.47" transform="translate(-30.65 66.42) rotate(-13.82)" fill="#002346" stroke="#002346" stroke-miterlimit="10"></ellipse>
        <ellipse cx="267.59" cy="165.39" rx="9.43" ry="9.6" transform="translate(-31.75 68.69) rotate(-13.82)" fill="#3F72AF" stroke="#002346" stroke-miterlimit="10"></ellipse>
        <path d="M299.82,174.05c-2.06,2.7-6.79,7.21-16.9,10.55,0,0,2.13,6.49-4.54,14.3-1.94,2.27-3.05,5.17-2.98,8.19,.1,4.78,1.75,9.35,10.75,13.35,0,0-6.39,5.97-14.24,5.29,0,0-3.41,5.74-11,7.21-3.13,.61-6.42-.61-8.33-3.21-2.55-3.47-4.92-10.21-3.31-23.17,0,0,.6-44.43,24.75-50.37,0,0,10.7-4.5,21.46-1.68,10.85,2.85,16.74,20.59,14.89,29l-2.49-3.22c-2.02-2.61-2.41-3.12-3.83-5.83-.14-.27-.33-.52-.56-.72h0c-1.1-1-2.76-.87-3.66,.31Z" fill="#002346" stroke="#002346" stroke-miterlimit="10"></path>
      </g>
    </g>
    <g>
      <path d="M450.85,555.97c.2,2.34,.51,4.98,.96,7.67,0,0,9.48-31.02,40.64-27.02l-6.12-13.48-5.06-5.06c-10.16,5.28-20,3.69-26.72,17.32-3.14,6.36-4.31,13.51-3.69,20.58Z" fill="#7cd295" stroke="#002346" stroke-miterlimit="10"></path>
      <path d="M538.7,526.26c-28.12,.03-32.32-41.41-3.91-75.9,.09-.11,.27-.04,.26,.11-1.12,11.76,33.4,53.9,10.78,73.19-1.99,1.69-4.51,2.6-7.12,2.6Z" fill="#7cd295" stroke="#002346" stroke-miterlimit="10"></path>
      <path d="M537,510.78c-17.74-10.53-13.74-42.1,38.83-60.73,.1-.03,.2,.06,.16,.15-.6,1.71-4.08,12.88-5.91,44.4-.49,8.4-12.49,28.4-33.08,16.17Z" fill="#7cd295" stroke="#002346" stroke-miterlimit="10"></path>
      <path d="M555.36,579.98c.8,6.21-41.3,6.21-40.5,0-.8-6.21,41.3-6.21,40.5,0Z" fill="#002346" stroke="#002346" stroke-miterlimit="10"></path>
      <path d="M557.02,634.97c-1.82-.27-48.18,.79-48.29-.86-9.13-4.33-9.52-18.47-9.52-18.47-1.38-18.87,15.65-28.99,15.65-28.99v-6.67c-.8,6.21,41.3,6.21,40.5,0v7.13c22.29,14.63,17.77,46.38,1.66,47.86Z" fill="#3F72AF" stroke="#002346" stroke-miterlimit="10"></path>
      <path d="M556.74,595.39c.05,3.58-5.58,3.58-5.52,0-.05-3.58,5.58-3.58,5.52,0Z" fill="#fff"></path>
      <path d="M565.02,603.68c.05,3.58-5.58,3.58-5.52,0-.05-3.58,5.58-3.58,5.52,0Z" fill="#fff"></path>
      <path d="M566.41,617.02c.05,3.58-5.58,3.58-5.52,0-.05-3.58,5.58-3.58,5.52,0Z" fill="#fff"></path>
      <path d="M559.04,627.15c.05,3.58-5.58,3.58-5.52,0-.05-3.58,5.58-3.58,5.52,0Z" fill="#fff"></path>
      <path d="M536.49,629.91c.05,3.58-5.58,3.58-5.52,0-.05-3.58,5.58-3.58,5.52,0Z" fill="#fff"></path>
      <path d="M519,627.15c.05,3.58-5.58,3.58-5.52,0-.05-3.58,5.58-3.58,5.52,0Z" fill="#fff"></path>
      <path d="M509.34,619.33c.05,3.58-5.58,3.58-5.52,0-.05-3.58,5.58-3.58,5.52,0Z" fill="#fff"></path>
      <path d="M510.72,603.68c.05,3.58-5.58,3.58-5.52,0-.05-3.58,5.58-3.58,5.52,0Z" fill="#fff"></path>
      <path d="M520.84,594.47c.05,3.58-5.58,3.58-5.52,0-.05-3.58,5.58-3.58,5.52,0Z" fill="#fff"></path>
      <path d="M530.05,602.76c.05,3.58-5.58,3.58-5.52,0-.05-3.58,5.58-3.58,5.52,0Z" fill="#fff"></path>
      <path d="M519.46,610.12c.05,3.58-5.58,3.58-5.52,0-.05-3.58,5.58-3.58,5.52,0Z" fill="#fff"></path>
      <path d="M528.67,619.33c.05,3.58-5.58,3.58-5.52,0-.05-3.58,5.58-3.58,5.52,0Z" fill="#fff"></path>
      <path d="M538.79,611.5c.05,3.58-5.58,3.58-5.52,0-.05-3.58,5.58-3.58,5.52,0Z" fill="#fff"></path>
      <path d="M540.63,595.85c.05,3.58-5.58,3.58-5.52,0-.05-3.58,5.58-3.58,5.52,0Z" fill="#fff"></path>
      <path d="M548.92,605.52c.05,3.58-5.58,3.58-5.52,0-.05-3.58,5.58-3.58,5.52,0Z" fill="#fff"></path>
      <path d="M555.36,611.96c.05,3.58-5.58,3.58-5.52,0-.05-3.58,5.58-3.58,5.52,0Z" fill="#fff"></path>
      <path d="M546.15,621.17c.05,3.58-5.58,3.58-5.52,0-.05-3.58,5.58-3.58,5.52,0Z" fill="#fff"></path>
      <path d="M580.21,548.91c-15.18-12.36-36.76,4.61-15.19,25.77,0,0,11.05,10.12,15.65,20.71,0,0,21.17-15.19,21.63-35.9,0,0,0-21.17-22.09-10.59Z" fill="#7cd295" stroke="#002346" stroke-miterlimit="10"></path>
      <path d="M451.37,546.35c23.85-42.04,34.03,1.19,69.93-4.8,.54-48.33-69.4-46.3-69.93,4.8Z" fill="#7cd295" stroke="#002346" stroke-miterlimit="10"></path>
      <path d="M514.86,586.65s16.99,8.72,40.5,.46" fill="none" stroke="#002346" stroke-linecap="round" stroke-linejoin="round"></path>
      <path d="M539.37,564.35s10-42,35.45-21.63c3.58,2.86,5.82,7.08,6.91,11.53,1.69,6.9,3.83,19.46,1.14,31.6" fill="none" stroke="#002346" stroke-linecap="round" stroke-linejoin="round"></path>
      <path d="M571.87,453.85s-47,34-31,126" fill="none" stroke="#002346" stroke-linecap="round" stroke-linejoin="round"></path>
      <path d="M469.87,518.85s62-1,64,60" fill="none" stroke="#002346" stroke-linecap="round" stroke-linejoin="round"></path>
    </g>
  </g>
  <text transform="translate(465.01 120.53)" fill="#002346" font-family="Barlow-Bold, Barlow" font-size="12" font-weight="700">
    <tspan x="0" y="0" letter-spacing="-.06em">T</tspan>
    <tspan x="6.25" y="0" letter-spacing="-.04em">A</tspan>
    <tspan x="13.78" y="0">S</tspan>
    <tspan x="20.92" y="0" letter-spacing="-.02em">K</tspan>
    <tspan x="28.16" y="0" letter-spacing="0em">S</tspan>
  </text>
  <text transform="translate(646.86 120.48)" fill="#002346" font-family="Barlow-Medium, Barlow" font-size="12" font-weight="500">
    <tspan x="0" y="0" letter-spacing="-.01em">A</tspan>
    <tspan x="7.39" y="0">dd </tspan>
    <tspan x="23.06" y="0" letter-spacing="-.02em">T</tspan>
    <tspan x="29.69" y="0" letter-spacing="0em">ask</tspan>
  </text>
</svg>
